<svg xmlns="http://www.w3.org/2000/svg" xmlns:xlink="http://www.w3.org/1999/xlink" width="112" zoomAndPan="magnify" viewBox="0 0 84 91.92" height="112" preserveAspectRatio="xMidYMid meet" version="1.0"><defs><clipPath id="58ca84cbe7"><path d="M 0.0351562 0 L 83.960938 0 L 83.960938 83.925781 L 0.0351562 83.925781 Z M 0.0351562 0 " clip-rule="nonzero"/></clipPath><clipPath id="181e44aa1a"><path d="M 19 11.578125 L 69 11.578125 L 69 48 L 19 48 Z M 19 11.578125 " clip-rule="nonzero"/></clipPath><clipPath id="536a183148"><path d="M 19 56 L 69 56 L 69 72.277344 L 19 72.277344 Z M 19 56 " clip-rule="nonzero"/></clipPath><clipPath id="dac906d8ef"><path d="M 19 11.578125 L 35 11.578125 L 35 27 L 19 27 Z M 19 11.578125 " clip-rule="nonzero"/></clipPath><clipPath id="e70f476d59"><path d="M 5.28125 33 L 16 33 L 16 44 L 5.28125 44 Z M 5.28125 33 " clip-rule="nonzero"/></clipPath><clipPath id="ae617992ef"><path d="M 5.28125 53 L 16 53 L 16 64 L 5.28125 64 Z M 5.28125 53 " clip-rule="nonzero"/></clipPath><clipPath id="f68b5e54cd"><path d="M 68 46 L 78.71875 46 L 78.71875 57 L 68 57 Z M 68 46 " clip-rule="nonzero"/></clipPath></defs><g clip-path="url(#58ca84cbe7)"><path fill="#ffffff" d="M 0.0351562 0 L 83.964844 0 L 83.964844 83.925781 L 0.0351562 83.925781 Z M 0.0351562 0 " fill-opacity="1" fill-rule="nonzero"/><path fill="#ffffff" d="M 0.0351562 0 L 83.964844 0 L 83.964844 83.925781 L 0.0351562 83.925781 Z M 0.0351562 0 " fill-opacity="1" fill-rule="nonzero"/></g><g clip-path="url(#181e44aa1a)"><path fill="#15dad5" d="M 66.804688 47.960938 C 66.992188 47.960938 67.171875 47.925781 67.34375 47.851562 C 67.515625 47.78125 67.667969 47.679688 67.796875 47.550781 C 67.929688 47.417969 68.03125 47.265625 68.101562 47.09375 C 68.171875 46.921875 68.207031 46.742188 68.207031 46.558594 L 68.207031 13.097656 C 68.207031 12.910156 68.171875 12.734375 68.101562 12.5625 C 68.03125 12.390625 67.929688 12.238281 67.796875 12.105469 C 67.667969 11.976562 67.515625 11.875 67.34375 11.800781 C 67.171875 11.730469 66.992188 11.695312 66.804688 11.695312 L 32.78125 11.695312 C 32.394531 11.703125 32.066406 11.839844 31.800781 12.117188 L 19.453125 24.441406 C 19.175781 24.714844 19.035156 25.046875 19.03125 25.433594 L 19.03125 33.945312 C 19.039062 34.128906 19.078125 34.300781 19.152344 34.464844 C 19.226562 34.632812 19.328125 34.777344 19.460938 34.902344 C 19.589844 35.027344 19.738281 35.125 19.90625 35.191406 C 20.074219 35.257812 20.25 35.292969 20.433594 35.292969 C 20.613281 35.292969 20.789062 35.257812 20.957031 35.191406 C 21.125 35.125 21.273438 35.027344 21.402344 34.902344 C 21.535156 34.777344 21.636719 34.632812 21.710938 34.464844 C 21.785156 34.300781 21.824219 34.128906 21.832031 33.945312 L 21.832031 26.007812 L 33.347656 14.488281 L 65.40625 14.488281 L 65.40625 46.558594 C 65.40625 46.742188 65.441406 46.921875 65.511719 47.09375 C 65.585938 47.265625 65.6875 47.417969 65.816406 47.546875 C 65.949219 47.679688 66.097656 47.78125 66.269531 47.851562 C 66.441406 47.921875 66.621094 47.960938 66.804688 47.960938 Z M 66.804688 47.960938 " fill-opacity="1" fill-rule="nonzero"/></g><path fill="#15dad5" d="M 20.433594 55.722656 C 20.621094 55.722656 20.800781 55.6875 20.96875 55.617188 C 21.140625 55.542969 21.292969 55.441406 21.425781 55.3125 C 21.554688 55.179688 21.65625 55.027344 21.726562 54.859375 C 21.800781 54.6875 21.835938 54.507812 21.835938 54.320312 L 21.835938 42.945312 C 21.828125 42.765625 21.785156 42.59375 21.710938 42.425781 C 21.636719 42.261719 21.535156 42.117188 21.40625 41.992188 C 21.273438 41.867188 21.125 41.769531 20.957031 41.703125 C 20.789062 41.632812 20.613281 41.601562 20.433594 41.601562 C 20.253906 41.601562 20.078125 41.632812 19.910156 41.703125 C 19.742188 41.769531 19.59375 41.867188 19.460938 41.992188 C 19.332031 42.117188 19.230469 42.261719 19.15625 42.425781 C 19.082031 42.59375 19.039062 42.765625 19.035156 42.945312 L 19.035156 54.320312 C 19.035156 54.507812 19.070312 54.6875 19.140625 54.859375 C 19.210938 55.03125 19.3125 55.179688 19.445312 55.3125 C 19.574219 55.445312 19.726562 55.546875 19.898438 55.617188 C 20.070312 55.6875 20.25 55.722656 20.433594 55.722656 Z M 20.433594 55.722656 " fill-opacity="1" fill-rule="nonzero"/><g clip-path="url(#536a183148)"><path fill="#15dad5" d="M 20.433594 72.332031 L 66.804688 72.332031 C 66.992188 72.332031 67.171875 72.296875 67.34375 72.226562 C 67.515625 72.152344 67.667969 72.050781 67.796875 71.921875 C 67.929688 71.789062 68.03125 71.636719 68.101562 71.464844 C 68.171875 71.292969 68.207031 71.117188 68.207031 70.929688 L 68.207031 57.609375 C 68.214844 57.421875 68.183594 57.234375 68.117188 57.058594 C 68.050781 56.878906 67.949219 56.722656 67.816406 56.585938 C 67.6875 56.449219 67.53125 56.339844 67.355469 56.265625 C 67.179688 56.191406 67 56.15625 66.808594 56.15625 C 66.617188 56.15625 66.433594 56.191406 66.257812 56.265625 C 66.082031 56.339844 65.929688 56.449219 65.796875 56.585938 C 65.664062 56.722656 65.566406 56.878906 65.496094 57.058594 C 65.429688 57.234375 65.398438 57.421875 65.40625 57.609375 L 65.40625 69.53125 L 21.84375 69.53125 L 21.84375 63.324219 C 21.839844 63.144531 21.796875 62.96875 21.722656 62.804688 C 21.648438 62.640625 21.546875 62.496094 21.417969 62.367188 C 21.285156 62.242188 21.136719 62.144531 20.96875 62.078125 C 20.800781 62.011719 20.625 61.976562 20.445312 61.976562 C 20.261719 61.976562 20.089844 62.011719 19.921875 62.078125 C 19.753906 62.144531 19.601562 62.242188 19.472656 62.367188 C 19.34375 62.496094 19.238281 62.640625 19.164062 62.804688 C 19.089844 62.96875 19.050781 63.144531 19.042969 63.324219 L 19.042969 70.929688 C 19.042969 71.113281 19.078125 71.292969 19.148438 71.464844 C 19.21875 71.636719 19.320312 71.785156 19.449219 71.917969 C 19.582031 72.046875 19.730469 72.148438 19.902344 72.222656 C 20.074219 72.292969 20.25 72.332031 20.433594 72.332031 Z M 20.433594 72.332031 " fill-opacity="1" fill-rule="nonzero"/></g><g clip-path="url(#dac906d8ef)"><path fill="#15dad5" d="M 19.148438 25.96875 C 19.039062 25.707031 19.015625 25.4375 19.070312 25.160156 C 19.125 24.882812 19.25 24.644531 19.453125 24.441406 L 31.800781 12.117188 C 32 11.917969 32.238281 11.789062 32.515625 11.734375 C 32.792969 11.679688 33.0625 11.707031 33.324219 11.816406 C 33.585938 11.921875 33.796875 12.09375 33.953125 12.332031 C 34.109375 12.566406 34.1875 12.824219 34.191406 13.109375 L 34.191406 25.433594 C 34.191406 25.621094 34.152344 25.796875 34.082031 25.96875 C 34.011719 26.140625 33.910156 26.292969 33.78125 26.425781 C 33.648438 26.554688 33.496094 26.65625 33.324219 26.726562 C 33.15625 26.800781 32.976562 26.835938 32.789062 26.835938 L 20.433594 26.835938 C 20.152344 26.832031 19.894531 26.753906 19.660156 26.597656 C 19.425781 26.441406 19.257812 26.230469 19.148438 25.96875 Z M 31.378906 16.476562 L 23.824219 24.03125 L 31.378906 24.03125 Z M 31.378906 16.476562 " fill-opacity="1" fill-rule="nonzero"/></g><path fill="#15dad5" d="M 38.390625 28.742188 L 59.867188 28.742188 C 60.054688 28.742188 60.230469 28.703125 60.402344 28.632812 C 60.574219 28.5625 60.722656 28.460938 60.855469 28.328125 C 60.984375 28.195312 61.085938 28.042969 61.15625 27.875 C 61.226562 27.703125 61.261719 27.523438 61.261719 27.339844 L 61.261719 20.800781 C 61.261719 20.617188 61.226562 20.4375 61.15625 20.265625 C 61.082031 20.09375 60.980469 19.941406 60.851562 19.8125 C 60.71875 19.679688 60.566406 19.578125 60.394531 19.507812 C 60.222656 19.4375 60.046875 19.398438 59.859375 19.398438 L 38.390625 19.398438 C 38.199219 19.394531 38.015625 19.421875 37.835938 19.492188 C 37.660156 19.558594 37.5 19.660156 37.363281 19.789062 C 37.226562 19.921875 37.121094 20.078125 37.046875 20.25 C 36.972656 20.425781 36.933594 20.609375 36.933594 20.800781 C 36.933594 20.992188 36.972656 21.175781 37.046875 21.351562 C 37.121094 21.523438 37.226562 21.679688 37.363281 21.8125 C 37.5 21.941406 37.660156 22.042969 37.835938 22.109375 C 38.015625 22.179688 38.199219 22.207031 38.390625 22.203125 L 58.46875 22.203125 L 58.46875 25.9375 L 38.390625 25.9375 C 38.199219 25.929688 38.015625 25.960938 37.835938 26.027344 C 37.660156 26.09375 37.5 26.195312 37.363281 26.328125 C 37.226562 26.460938 37.121094 26.613281 37.046875 26.789062 C 36.972656 26.964844 36.933594 27.148438 36.933594 27.335938 C 36.933594 27.527344 36.972656 27.710938 37.046875 27.886719 C 37.121094 28.0625 37.226562 28.214844 37.363281 28.347656 C 37.5 28.480469 37.660156 28.578125 37.835938 28.648438 C 38.015625 28.714844 38.199219 28.746094 38.390625 28.738281 Z M 38.390625 28.742188 " fill-opacity="1" fill-rule="nonzero"/><path fill="#15dad5" d="M 27.378906 36.792969 L 59.867188 36.792969 C 60.058594 36.800781 60.242188 36.769531 60.421875 36.703125 C 60.597656 36.636719 60.757812 36.535156 60.894531 36.402344 C 61.03125 36.269531 61.136719 36.117188 61.210938 35.941406 C 61.285156 35.765625 61.324219 35.582031 61.324219 35.394531 C 61.324219 35.203125 61.285156 35.019531 61.210938 34.84375 C 61.136719 34.667969 61.03125 34.515625 60.894531 34.382812 C 60.757812 34.25 60.597656 34.152344 60.421875 34.082031 C 60.242188 34.015625 60.058594 33.984375 59.867188 33.992188 L 27.378906 33.992188 C 27.1875 33.984375 27.003906 34.015625 26.828125 34.082031 C 26.648438 34.152344 26.492188 34.25 26.355469 34.382812 C 26.214844 34.515625 26.109375 34.667969 26.035156 34.84375 C 25.960938 35.019531 25.921875 35.203125 25.921875 35.394531 C 25.921875 35.582031 25.960938 35.765625 26.035156 35.941406 C 26.109375 36.117188 26.214844 36.269531 26.355469 36.402344 C 26.492188 36.535156 26.648438 36.636719 26.828125 36.703125 C 27.003906 36.769531 27.1875 36.800781 27.378906 36.792969 Z M 27.378906 36.792969 " fill-opacity="1" fill-rule="nonzero"/><path fill="#15dad5" d="M 27.378906 43.414062 L 59.867188 43.414062 C 60.058594 43.421875 60.242188 43.390625 60.421875 43.324219 C 60.597656 43.253906 60.757812 43.15625 60.894531 43.023438 C 61.03125 42.890625 61.136719 42.738281 61.210938 42.5625 C 61.285156 42.386719 61.324219 42.203125 61.324219 42.015625 C 61.324219 41.824219 61.285156 41.640625 61.210938 41.464844 C 61.136719 41.289062 61.03125 41.136719 60.894531 41.003906 C 60.757812 40.871094 60.597656 40.773438 60.421875 40.703125 C 60.242188 40.636719 60.058594 40.605469 59.867188 40.613281 L 27.378906 40.613281 C 27.1875 40.605469 27.003906 40.636719 26.828125 40.703125 C 26.648438 40.773438 26.492188 40.871094 26.355469 41.003906 C 26.214844 41.136719 26.109375 41.289062 26.035156 41.464844 C 25.960938 41.640625 25.921875 41.824219 25.921875 42.015625 C 25.921875 42.203125 25.960938 42.386719 26.035156 42.5625 C 26.109375 42.738281 26.214844 42.890625 26.355469 43.023438 C 26.492188 43.15625 26.648438 43.253906 26.828125 43.324219 C 27.003906 43.390625 27.1875 43.421875 27.378906 43.414062 Z M 27.378906 43.414062 " fill-opacity="1" fill-rule="nonzero"/><path fill="#15dad5" d="M 27.378906 50.035156 L 55.199219 50.035156 C 55.382812 50.027344 55.554688 49.988281 55.71875 49.914062 C 55.886719 49.839844 56.03125 49.738281 56.15625 49.605469 C 56.28125 49.476562 56.378906 49.324219 56.445312 49.15625 C 56.515625 48.988281 56.546875 48.816406 56.546875 48.632812 C 56.546875 48.453125 56.515625 48.277344 56.445312 48.109375 C 56.378906 47.941406 56.28125 47.792969 56.15625 47.664062 C 56.03125 47.53125 55.886719 47.429688 55.71875 47.355469 C 55.554688 47.28125 55.382812 47.242188 55.199219 47.234375 L 27.378906 47.234375 C 27.1875 47.226562 27.003906 47.257812 26.828125 47.324219 C 26.648438 47.390625 26.492188 47.492188 26.355469 47.625 C 26.214844 47.757812 26.109375 47.910156 26.035156 48.085938 C 25.960938 48.261719 25.921875 48.445312 25.921875 48.632812 C 25.921875 48.824219 25.960938 49.007812 26.035156 49.183594 C 26.109375 49.359375 26.214844 49.511719 26.355469 49.644531 C 26.492188 49.777344 26.648438 49.875 26.828125 49.945312 C 27.003906 50.011719 27.1875 50.042969 27.378906 50.035156 Z M 27.378906 50.035156 " fill-opacity="1" fill-rule="nonzero"/><path fill="#15dad5" d="M 27.378906 56.65625 L 55.199219 56.65625 C 55.386719 56.65625 55.566406 56.621094 55.738281 56.550781 C 55.910156 56.480469 56.058594 56.378906 56.191406 56.246094 C 56.324219 56.117188 56.425781 55.964844 56.496094 55.792969 C 56.566406 55.621094 56.601562 55.441406 56.601562 55.257812 C 56.601562 55.070312 56.566406 54.890625 56.496094 54.71875 C 56.425781 54.546875 56.324219 54.394531 56.191406 54.265625 C 56.058594 54.132812 55.910156 54.03125 55.738281 53.960938 C 55.566406 53.890625 55.386719 53.855469 55.199219 53.855469 L 27.378906 53.855469 C 27.195312 53.855469 27.015625 53.890625 26.84375 53.960938 C 26.671875 54.03125 26.519531 54.132812 26.386719 54.265625 C 26.257812 54.394531 26.15625 54.546875 26.085938 54.71875 C 26.011719 54.890625 25.976562 55.070312 25.976562 55.257812 C 25.976562 55.441406 26.011719 55.621094 26.085938 55.792969 C 26.15625 55.964844 26.257812 56.117188 26.386719 56.246094 C 26.519531 56.378906 26.671875 56.480469 26.84375 56.550781 C 27.015625 56.621094 27.195312 56.65625 27.378906 56.65625 Z M 27.378906 56.65625 " fill-opacity="1" fill-rule="nonzero"/><path fill="#15dad5" d="M 27.378906 63.277344 L 59.867188 63.277344 C 60.054688 63.277344 60.234375 63.242188 60.40625 63.171875 C 60.578125 63.101562 60.726562 63 60.859375 62.867188 C 60.992188 62.734375 61.09375 62.585938 61.164062 62.414062 C 61.234375 62.242188 61.269531 62.0625 61.269531 61.875 C 61.269531 61.691406 61.234375 61.511719 61.164062 61.339844 C 61.09375 61.167969 60.992188 61.015625 60.859375 60.886719 C 60.726562 60.753906 60.578125 60.652344 60.40625 60.582031 C 60.234375 60.511719 60.054688 60.476562 59.867188 60.476562 L 27.378906 60.476562 C 27.195312 60.476562 27.015625 60.511719 26.84375 60.582031 C 26.671875 60.652344 26.519531 60.753906 26.386719 60.886719 C 26.257812 61.015625 26.15625 61.167969 26.085938 61.339844 C 26.011719 61.511719 25.976562 61.691406 25.976562 61.875 C 25.976562 62.0625 26.011719 62.242188 26.085938 62.414062 C 26.15625 62.585938 26.257812 62.734375 26.386719 62.867188 C 26.519531 63 26.671875 63.101562 26.84375 63.171875 C 27.015625 63.242188 27.195312 63.277344 27.378906 63.277344 Z M 27.378906 63.277344 " fill-opacity="1" fill-rule="nonzero"/><path fill="#15dad5" d="M 13.820312 39.847656 L 24.773438 39.847656 C 24.953125 39.839844 25.125 39.800781 25.292969 39.726562 C 25.457031 39.652344 25.601562 39.550781 25.726562 39.417969 C 25.855469 39.289062 25.949219 39.136719 26.019531 38.96875 C 26.085938 38.800781 26.121094 38.628906 26.121094 38.445312 C 26.121094 38.265625 26.085938 38.089844 26.019531 37.921875 C 25.949219 37.753906 25.855469 37.605469 25.726562 37.476562 C 25.601562 37.34375 25.457031 37.242188 25.292969 37.167969 C 25.125 37.09375 24.953125 37.054688 24.773438 37.046875 L 13.828125 37.046875 C 13.636719 37.039062 13.453125 37.070312 13.277344 37.136719 C 13.097656 37.203125 12.941406 37.304688 12.804688 37.4375 C 12.664062 37.570312 12.558594 37.722656 12.484375 37.898438 C 12.410156 38.074219 12.375 38.257812 12.375 38.445312 C 12.375 38.636719 12.410156 38.820312 12.484375 38.996094 C 12.558594 39.171875 12.664062 39.324219 12.804688 39.457031 C 12.941406 39.589844 13.097656 39.6875 13.277344 39.757812 C 13.453125 39.824219 13.636719 39.855469 13.828125 39.847656 Z M 13.820312 39.847656 " fill-opacity="1" fill-rule="nonzero"/><g clip-path="url(#e70f476d59)"><path fill="#15dad5" d="M 5.28125 38.445312 C 5.28125 38.121094 5.316406 37.796875 5.378906 37.476562 C 5.441406 37.15625 5.535156 36.84375 5.660156 36.542969 C 5.785156 36.242188 5.9375 35.957031 6.121094 35.683594 C 6.300781 35.414062 6.507812 35.164062 6.738281 34.933594 C 6.96875 34.703125 7.21875 34.496094 7.492188 34.3125 C 7.761719 34.132812 8.046875 33.980469 8.351562 33.855469 C 8.652344 33.730469 8.960938 33.636719 9.28125 33.574219 C 9.601562 33.507812 9.925781 33.476562 10.25 33.476562 C 10.578125 33.476562 10.902344 33.507812 11.222656 33.574219 C 11.539062 33.636719 11.851562 33.730469 12.152344 33.855469 C 12.453125 33.980469 12.742188 34.132812 13.011719 34.3125 C 13.28125 34.496094 13.535156 34.703125 13.765625 34.933594 C 13.996094 35.164062 14.203125 35.414062 14.382812 35.683594 C 14.5625 35.957031 14.71875 36.242188 14.84375 36.542969 C 14.964844 36.84375 15.0625 37.15625 15.125 37.476562 C 15.1875 37.796875 15.21875 38.121094 15.21875 38.445312 C 15.21875 38.773438 15.1875 39.09375 15.125 39.414062 C 15.0625 39.734375 14.964844 40.046875 14.84375 40.347656 C 14.71875 40.648438 14.5625 40.933594 14.382812 41.207031 C 14.203125 41.476562 13.996094 41.726562 13.765625 41.957031 C 13.535156 42.191406 13.28125 42.394531 13.011719 42.578125 C 12.742188 42.757812 12.453125 42.910156 12.152344 43.035156 C 11.851562 43.160156 11.539062 43.253906 11.222656 43.320312 C 10.902344 43.382812 10.578125 43.414062 10.25 43.414062 C 9.925781 43.414062 9.601562 43.382812 9.28125 43.316406 C 8.960938 43.253906 8.652344 43.160156 8.351562 43.035156 C 8.050781 42.910156 7.761719 42.757812 7.492188 42.574219 C 7.222656 42.394531 6.96875 42.1875 6.738281 41.957031 C 6.507812 41.726562 6.304688 41.476562 6.121094 41.203125 C 5.941406 40.933594 5.789062 40.648438 5.664062 40.347656 C 5.539062 40.046875 5.441406 39.734375 5.378906 39.414062 C 5.316406 39.09375 5.28125 38.773438 5.28125 38.445312 Z M 8.082031 38.445312 C 8.082031 38.734375 8.136719 39.007812 8.25 39.277344 C 8.359375 39.542969 8.515625 39.777344 8.71875 39.980469 C 8.921875 40.183594 9.15625 40.339844 9.421875 40.449219 C 9.6875 40.558594 9.960938 40.613281 10.25 40.617188 C 10.539062 40.617188 10.8125 40.5625 11.078125 40.449219 C 11.34375 40.339844 11.578125 40.183594 11.785156 39.980469 C 11.988281 39.777344 12.144531 39.542969 12.253906 39.277344 C 12.363281 39.011719 12.417969 38.734375 12.417969 38.449219 C 12.417969 38.160156 12.363281 37.882812 12.253906 37.617188 C 12.144531 37.351562 11.988281 37.117188 11.785156 36.914062 C 11.582031 36.710938 11.347656 36.554688 11.082031 36.445312 C 10.816406 36.335938 10.539062 36.28125 10.25 36.28125 C 9.964844 36.28125 9.6875 36.335938 9.421875 36.445312 C 9.15625 36.554688 8.921875 36.710938 8.71875 36.914062 C 8.515625 37.117188 8.359375 37.351562 8.25 37.617188 C 8.140625 37.882812 8.085938 38.160156 8.082031 38.445312 Z M 8.082031 38.445312 " fill-opacity="1" fill-rule="nonzero"/></g><path fill="#15dad5" d="M 13.820312 60.222656 L 24.773438 60.222656 C 24.953125 60.214844 25.125 60.175781 25.292969 60.101562 C 25.457031 60.027344 25.601562 59.925781 25.726562 59.792969 C 25.855469 59.664062 25.949219 59.515625 26.019531 59.347656 C 26.085938 59.175781 26.121094 59.003906 26.121094 58.820312 C 26.121094 58.640625 26.085938 58.464844 26.019531 58.296875 C 25.949219 58.128906 25.855469 57.980469 25.726562 57.851562 C 25.601562 57.71875 25.457031 57.617188 25.292969 57.542969 C 25.125 57.46875 24.953125 57.429688 24.773438 57.421875 L 13.828125 57.421875 C 13.636719 57.414062 13.453125 57.445312 13.277344 57.511719 C 13.097656 57.578125 12.941406 57.679688 12.804688 57.8125 C 12.664062 57.945312 12.558594 58.097656 12.484375 58.273438 C 12.410156 58.449219 12.375 58.632812 12.375 58.820312 C 12.375 59.011719 12.410156 59.195312 12.484375 59.371094 C 12.558594 59.546875 12.664062 59.699219 12.804688 59.832031 C 12.941406 59.964844 13.097656 60.0625 13.277344 60.132812 C 13.453125 60.199219 13.636719 60.230469 13.828125 60.222656 Z M 13.820312 60.222656 " fill-opacity="1" fill-rule="nonzero"/><g clip-path="url(#ae617992ef)"><path fill="#15dad5" d="M 5.28125 58.824219 C 5.28125 58.496094 5.316406 58.171875 5.378906 57.855469 C 5.441406 57.535156 5.535156 57.222656 5.660156 56.921875 C 5.785156 56.621094 5.9375 56.332031 6.121094 56.0625 C 6.300781 55.792969 6.507812 55.539062 6.738281 55.308594 C 6.96875 55.078125 7.21875 54.871094 7.492188 54.691406 C 7.761719 54.511719 8.046875 54.359375 8.351562 54.234375 C 8.652344 54.109375 8.960938 54.011719 9.28125 53.949219 C 9.601562 53.886719 9.925781 53.855469 10.25 53.855469 C 10.578125 53.855469 10.902344 53.886719 11.222656 53.949219 C 11.539062 54.011719 11.851562 54.109375 12.152344 54.234375 C 12.453125 54.359375 12.742188 54.511719 13.011719 54.691406 C 13.28125 54.871094 13.535156 55.078125 13.765625 55.308594 C 13.996094 55.539062 14.203125 55.792969 14.382812 56.0625 C 14.5625 56.332031 14.71875 56.621094 14.84375 56.921875 C 14.964844 57.222656 15.0625 57.535156 15.125 57.855469 C 15.1875 58.171875 15.21875 58.496094 15.21875 58.824219 C 15.21875 59.148438 15.1875 59.472656 15.125 59.792969 C 15.0625 60.113281 14.964844 60.421875 14.84375 60.722656 C 14.71875 61.027344 14.5625 61.3125 14.382812 61.582031 C 14.203125 61.855469 13.996094 62.105469 13.765625 62.335938 C 13.535156 62.566406 13.28125 62.773438 13.011719 62.953125 C 12.742188 63.136719 12.453125 63.289062 12.152344 63.414062 C 11.851562 63.539062 11.539062 63.632812 11.222656 63.695312 C 10.902344 63.761719 10.578125 63.792969 10.25 63.792969 C 9.925781 63.792969 9.601562 63.757812 9.28125 63.695312 C 8.960938 63.632812 8.652344 63.539062 8.351562 63.414062 C 8.050781 63.289062 7.761719 63.132812 7.492188 62.953125 C 7.222656 62.773438 6.96875 62.566406 6.738281 62.335938 C 6.507812 62.105469 6.304688 61.855469 6.121094 61.582031 C 5.941406 61.3125 5.789062 61.023438 5.664062 60.722656 C 5.539062 60.421875 5.441406 60.113281 5.378906 59.792969 C 5.316406 59.472656 5.28125 59.148438 5.28125 58.824219 Z M 8.082031 58.824219 C 8.082031 59.109375 8.136719 59.386719 8.25 59.652344 C 8.359375 59.917969 8.515625 60.152344 8.71875 60.355469 C 8.921875 60.558594 9.15625 60.71875 9.421875 60.828125 C 9.6875 60.9375 9.960938 60.992188 10.25 60.992188 C 10.539062 60.992188 10.8125 60.9375 11.078125 60.828125 C 11.34375 60.71875 11.578125 60.5625 11.785156 60.359375 C 11.988281 60.15625 12.144531 59.921875 12.253906 59.65625 C 12.363281 59.390625 12.417969 59.113281 12.417969 58.824219 C 12.417969 58.539062 12.363281 58.261719 12.253906 57.996094 C 12.144531 57.730469 11.988281 57.496094 11.785156 57.292969 C 11.582031 57.089844 11.347656 56.933594 11.082031 56.824219 C 10.816406 56.710938 10.539062 56.65625 10.25 56.65625 C 9.964844 56.65625 9.6875 56.714844 9.421875 56.824219 C 9.15625 56.933594 8.921875 57.089844 8.71875 57.292969 C 8.515625 57.496094 8.359375 57.730469 8.25 57.996094 C 8.140625 58.257812 8.085938 58.535156 8.082031 58.824219 Z M 8.082031 58.824219 " fill-opacity="1" fill-rule="nonzero"/></g><path fill="#15dad5" d="M 58.824219 53.34375 L 69.765625 53.34375 C 69.957031 53.351562 70.140625 53.324219 70.320312 53.253906 C 70.5 53.1875 70.65625 53.085938 70.792969 52.953125 C 70.929688 52.824219 71.035156 52.667969 71.113281 52.492188 C 71.1875 52.316406 71.222656 52.136719 71.222656 51.945312 C 71.222656 51.753906 71.1875 51.570312 71.113281 51.394531 C 71.035156 51.21875 70.929688 51.066406 70.792969 50.933594 C 70.65625 50.800781 70.5 50.703125 70.320312 50.632812 C 70.140625 50.566406 69.957031 50.535156 69.765625 50.542969 L 58.824219 50.542969 C 58.632812 50.535156 58.449219 50.566406 58.273438 50.632812 C 58.09375 50.703125 57.9375 50.800781 57.796875 50.933594 C 57.660156 51.066406 57.554688 51.21875 57.480469 51.394531 C 57.40625 51.570312 57.367188 51.753906 57.367188 51.945312 C 57.367188 52.136719 57.40625 52.316406 57.480469 52.492188 C 57.554688 52.667969 57.660156 52.824219 57.796875 52.953125 C 57.9375 53.085938 58.09375 53.1875 58.273438 53.253906 C 58.449219 53.324219 58.632812 53.351562 58.824219 53.34375 Z M 58.824219 53.34375 " fill-opacity="1" fill-rule="nonzero"/><g clip-path="url(#f68b5e54cd)"><path fill="#15dad5" d="M 68.375 51.945312 C 68.375 51.621094 68.40625 51.296875 68.472656 50.976562 C 68.535156 50.65625 68.628906 50.34375 68.753906 50.042969 C 68.878906 49.742188 69.03125 49.457031 69.214844 49.183594 C 69.394531 48.914062 69.601562 48.660156 69.832031 48.429688 C 70.0625 48.199219 70.3125 47.996094 70.582031 47.8125 C 70.855469 47.632812 71.140625 47.476562 71.441406 47.355469 C 71.746094 47.230469 72.054688 47.132812 72.375 47.070312 C 72.695312 47.007812 73.019531 46.976562 73.34375 46.976562 C 73.671875 46.976562 73.992188 47.007812 74.3125 47.070312 C 74.632812 47.132812 74.945312 47.226562 75.246094 47.351562 C 75.546875 47.476562 75.835938 47.632812 76.105469 47.8125 C 76.375 47.992188 76.628906 48.199219 76.859375 48.429688 C 77.089844 48.660156 77.296875 48.910156 77.476562 49.183594 C 77.65625 49.453125 77.8125 49.742188 77.9375 50.042969 C 78.058594 50.34375 78.15625 50.65625 78.21875 50.976562 C 78.28125 51.292969 78.3125 51.617188 78.3125 51.945312 C 78.3125 52.269531 78.28125 52.59375 78.21875 52.914062 C 78.15625 53.234375 78.058594 53.542969 77.933594 53.847656 C 77.808594 54.148438 77.65625 54.433594 77.476562 54.703125 C 77.292969 54.976562 77.089844 55.226562 76.859375 55.457031 C 76.625 55.6875 76.375 55.894531 76.105469 56.074219 C 75.832031 56.257812 75.546875 56.410156 75.246094 56.535156 C 74.945312 56.660156 74.632812 56.753906 74.3125 56.816406 C 73.992188 56.878906 73.667969 56.914062 73.34375 56.914062 C 73.015625 56.910156 72.695312 56.878906 72.375 56.816406 C 72.054688 56.75 71.746094 56.65625 71.445312 56.53125 C 71.140625 56.40625 70.855469 56.253906 70.585938 56.074219 C 70.3125 55.890625 70.0625 55.6875 69.832031 55.457031 C 69.601562 55.226562 69.398438 54.972656 69.214844 54.703125 C 69.035156 54.433594 68.882812 54.144531 68.757812 53.84375 C 68.632812 53.542969 68.535156 53.234375 68.472656 52.914062 C 68.410156 52.59375 68.375 52.273438 68.375 51.945312 Z M 71.175781 51.945312 C 71.175781 52.234375 71.230469 52.511719 71.339844 52.777344 C 71.449219 53.042969 71.605469 53.277344 71.808594 53.480469 C 72.011719 53.6875 72.246094 53.84375 72.511719 53.953125 C 72.777344 54.066406 73.050781 54.121094 73.339844 54.121094 C 73.628906 54.121094 73.90625 54.066406 74.171875 53.957031 C 74.4375 53.847656 74.671875 53.691406 74.875 53.488281 C 75.078125 53.285156 75.238281 53.050781 75.347656 52.785156 C 75.457031 52.519531 75.511719 52.242188 75.511719 51.957031 C 75.511719 51.667969 75.457031 51.390625 75.347656 51.125 C 75.238281 50.859375 75.082031 50.625 74.878906 50.421875 C 74.675781 50.21875 74.4375 50.0625 74.171875 49.949219 C 73.90625 49.839844 73.628906 49.785156 73.34375 49.785156 C 73.054688 49.785156 72.78125 49.839844 72.515625 49.953125 C 72.25 50.0625 72.015625 50.21875 71.816406 50.417969 C 71.613281 50.621094 71.453125 50.855469 71.34375 51.121094 C 71.234375 51.382812 71.179688 51.660156 71.175781 51.945312 Z M 71.175781 51.945312 " fill-opacity="1" fill-rule="nonzero"/></g></svg>