<svg xmlns="http://www.w3.org/2000/svg" xmlns:xlink="http://www.w3.org/1999/xlink" width="112" zoomAndPan="magnify" viewBox="0 0 84 91.92" height="112" preserveAspectRatio="xMidYMid meet" version="1.0"><defs><clipPath id="316603f1fa"><path d="M 0.0351562 0 L 83.960938 0 L 83.960938 83.925781 L 0.0351562 83.925781 Z M 0.0351562 0 " clip-rule="nonzero"/></clipPath><clipPath id="81fc956c9a"><path d="M 64 25 L 78.808594 25 L 78.808594 70 L 64 70 Z M 64 25 " clip-rule="nonzero"/></clipPath><clipPath id="b44863cc1f"><path d="M 5.371094 14 L 20 14 L 20 59 L 5.371094 59 Z M 5.371094 14 " clip-rule="nonzero"/></clipPath><clipPath id="21e3a905b2"><path d="M 25 5.335938 L 70 5.335938 L 70 20 L 25 20 Z M 25 5.335938 " clip-rule="nonzero"/></clipPath><clipPath id="7c296e1cb5"><path d="M 14 64 L 59 64 L 59 78.769531 L 14 78.769531 Z M 14 64 " clip-rule="nonzero"/></clipPath></defs><g clip-path="url(#316603f1fa)"><path fill="#ffffff" d="M 0.0351562 0 L 83.964844 0 L 83.964844 83.925781 L 0.0351562 83.925781 Z M 0.0351562 0 " fill-opacity="1" fill-rule="nonzero"/><path fill="#ffffff" d="M 0.0351562 0 L 83.964844 0 L 83.964844 83.925781 L 0.0351562 83.925781 Z M 0.0351562 0 " fill-opacity="1" fill-rule="nonzero"/></g><g clip-path="url(#81fc956c9a)"><path fill="#15dad5" d="M 73.925781 25.558594 C 73.746094 25.558594 73.476562 25.59375 73.203125 25.777344 C 72.65625 26.140625 72.457031 26.839844 72.734375 27.40625 C 74.90625 31.976562 76.003906 36.867188 76.003906 41.960938 C 76.003906 49.375 73.652344 56.425781 69.203125 62.351562 C 68.867188 62.800781 68.277344 62.980469 67.746094 62.8125 C 67.214844 62.632812 66.851562 62.136719 66.847656 61.578125 C 66.84375 60.859375 66.253906 60.273438 65.539062 60.273438 C 64.820312 60.273438 64.230469 60.859375 64.230469 61.578125 L 64.230469 68.121094 C 64.230469 68.839844 64.820312 69.429688 65.539062 69.429688 L 72.082031 69.429688 C 72.800781 69.429688 73.386719 68.839844 73.386719 68.121094 C 73.386719 67.398438 72.800781 66.8125 72.082031 66.8125 L 71.726562 66.8125 C 71.226562 66.8125 70.765625 66.527344 70.550781 66.070312 C 70.332031 65.621094 70.394531 65.085938 70.707031 64.691406 C 75.882812 58.167969 78.621094 50.308594 78.621094 41.960938 C 78.621094 36.460938 77.433594 31.183594 75.09375 26.277344 C 74.84375 25.742188 74.328125 25.558594 73.925781 25.558594 " fill-opacity="1" fill-rule="nonzero"/></g><g clip-path="url(#b44863cc1f)"><path fill="#15dad5" d="M 10.066406 58.359375 C 10.246094 58.359375 10.515625 58.324219 10.789062 58.140625 C 11.335938 57.777344 11.535156 57.078125 11.257812 56.511719 C 9.085938 51.945312 7.988281 47.054688 7.988281 41.960938 C 7.988281 34.546875 10.339844 27.496094 14.789062 21.566406 C 15.125 21.117188 15.714844 20.933594 16.246094 21.109375 C 16.777344 21.285156 17.140625 21.78125 17.144531 22.339844 C 17.148438 23.058594 17.738281 23.648438 18.453125 23.648438 C 19.171875 23.648438 19.761719 23.058594 19.761719 22.339844 L 19.761719 15.800781 C 19.761719 15.078125 19.171875 14.492188 18.453125 14.492188 L 11.910156 14.492188 C 11.191406 14.492188 10.605469 15.078125 10.605469 15.800781 C 10.605469 16.519531 11.191406 17.105469 11.910156 17.105469 L 12.265625 17.105469 C 12.765625 17.105469 13.226562 17.394531 13.441406 17.847656 C 13.660156 18.296875 13.601562 18.835938 13.285156 19.226562 C 8.109375 25.753906 5.371094 33.609375 5.371094 41.960938 C 5.371094 47.457031 6.558594 52.734375 8.898438 57.640625 C 9.148438 58.175781 9.664062 58.359375 10.066406 58.359375 " fill-opacity="1" fill-rule="nonzero"/></g><g clip-path="url(#21e3a905b2)"><path fill="#15dad5" d="M 61.617188 19.722656 L 68.15625 19.722656 C 68.875 19.722656 69.464844 19.136719 69.464844 18.414062 L 69.464844 11.875 C 69.464844 11.15625 68.875 10.566406 68.15625 10.566406 C 67.4375 10.566406 66.847656 11.15625 66.847656 11.875 L 66.847656 12.226562 C 66.847656 12.730469 66.5625 13.1875 66.109375 13.402344 C 65.65625 13.621094 65.121094 13.566406 64.726562 13.25 C 58.203125 8.074219 50.34375 5.335938 41.996094 5.335938 C 36.5 5.335938 31.21875 6.519531 26.316406 8.859375 C 25.777344 9.109375 25.59375 9.628906 25.59375 10.03125 C 25.59375 10.210938 25.628906 10.480469 25.816406 10.75 C 26.175781 11.296875 26.878906 11.496094 27.445312 11.222656 C 32.011719 9.050781 36.902344 7.953125 41.996094 7.953125 C 49.410156 7.953125 56.460938 10.300781 62.386719 14.75 C 62.835938 15.089844 63.019531 15.675781 62.847656 16.207031 C 62.667969 16.738281 62.171875 17.101562 61.617188 17.105469 C 60.894531 17.113281 60.308594 17.699219 60.308594 18.414062 C 60.308594 19.136719 60.894531 19.722656 61.617188 19.722656 " fill-opacity="1" fill-rule="nonzero"/></g><path fill="#15dad5" d="M 55.859375 48.238281 L 50.625 52.164062 C 50.390625 52.335938 50.121094 52.421875 49.84375 52.421875 C 49.445312 52.421875 49.058594 52.246094 48.796875 51.898438 C 48.363281 51.320312 48.480469 50.503906 49.0625 50.066406 L 52.894531 47.191406 L 49.0625 44.316406 C 48.480469 43.878906 48.363281 43.0625 48.796875 42.484375 C 49.230469 41.902344 50.054688 41.789062 50.625 42.21875 L 55.859375 46.144531 C 56.191406 46.394531 56.382812 46.777344 56.382812 47.191406 C 56.382812 47.605469 56.191406 47.988281 55.859375 48.238281 Z M 44.570312 42.277344 L 41.957031 52.742188 C 41.808594 53.339844 41.277344 53.730469 40.6875 53.730469 C 40.585938 53.730469 40.480469 53.714844 40.371094 53.691406 C 39.671875 53.515625 39.242188 52.808594 39.421875 52.105469 L 42.035156 41.644531 C 42.210938 40.9375 42.921875 40.507812 43.621094 40.691406 C 44.320312 40.867188 44.75 41.578125 44.570312 42.277344 Z M 34.929688 50.066406 C 35.511719 50.503906 35.628906 51.320312 35.195312 51.898438 C 34.933594 52.246094 34.546875 52.421875 34.148438 52.421875 C 33.871094 52.421875 33.601562 52.335938 33.367188 52.164062 L 28.132812 48.238281 C 27.800781 47.988281 27.609375 47.605469 27.609375 47.191406 C 27.609375 46.777344 27.800781 46.394531 28.132812 46.144531 L 33.367188 42.21875 C 33.945312 41.785156 34.761719 41.902344 35.195312 42.484375 C 35.628906 43.0625 35.511719 43.878906 34.929688 44.316406 L 31.097656 47.191406 Z M 59 36.726562 L 24.992188 36.726562 L 24.992188 53.730469 C 24.992188 55.898438 26.75 57.65625 28.914062 57.65625 L 55.078125 57.65625 C 57.242188 57.65625 59 55.898438 59 53.730469 L 59 36.726562 " fill-opacity="1" fill-rule="nonzero"/><path fill="#15dad5" d="M 36.765625 31.496094 L 35.457031 31.496094 C 34.734375 31.496094 34.148438 30.90625 34.148438 30.1875 C 34.148438 29.46875 34.734375 28.878906 35.457031 28.878906 L 36.765625 28.878906 C 37.484375 28.878906 38.070312 29.46875 38.070312 30.1875 C 38.070312 30.90625 37.484375 31.496094 36.765625 31.496094 Z M 30.222656 31.496094 L 28.914062 31.496094 C 28.195312 31.496094 27.609375 30.90625 27.609375 30.1875 C 27.609375 29.46875 28.195312 28.878906 28.914062 28.878906 L 30.222656 28.878906 C 30.945312 28.878906 31.53125 29.46875 31.53125 30.1875 C 31.53125 30.90625 30.945312 31.496094 30.222656 31.496094 Z M 59 30.1875 C 59 28.019531 57.242188 26.261719 55.078125 26.261719 L 28.914062 26.261719 C 26.75 26.261719 24.992188 28.019531 24.992188 30.1875 L 24.992188 34.113281 L 59 34.113281 L 59 30.1875 " fill-opacity="1" fill-rule="nonzero"/><g clip-path="url(#7c296e1cb5)"><path fill="#15dad5" d="M 22.375 64.195312 L 15.835938 64.195312 C 15.117188 64.195312 14.527344 64.785156 14.527344 65.503906 L 14.527344 72.042969 C 14.527344 72.765625 15.117188 73.351562 15.835938 73.351562 C 16.554688 73.351562 17.144531 72.765625 17.144531 72.042969 L 17.144531 71.691406 C 17.144531 71.191406 17.429688 70.730469 17.882812 70.515625 C 18.0625 70.425781 18.257812 70.382812 18.453125 70.382812 C 18.742188 70.382812 19.027344 70.480469 19.265625 70.667969 C 25.789062 75.84375 33.648438 78.582031 41.996094 78.582031 C 47.492188 78.582031 52.773438 77.398438 57.675781 75.058594 C 58.214844 74.808594 58.398438 74.292969 58.398438 73.886719 C 58.398438 73.710938 58.363281 73.4375 58.175781 73.167969 C 57.816406 72.621094 57.121094 72.425781 56.546875 72.699219 C 51.980469 74.871094 47.089844 75.96875 41.996094 75.96875 C 34.582031 75.96875 27.53125 73.617188 21.605469 69.167969 C 21.15625 68.828125 20.972656 68.242188 21.144531 67.710938 C 21.324219 67.179688 21.820312 66.816406 22.375 66.8125 C 23.097656 66.808594 23.683594 66.21875 23.683594 65.503906 C 23.683594 64.785156 23.097656 64.195312 22.375 64.195312 " fill-opacity="1" fill-rule="nonzero"/></g></svg>