<svg xmlns="http://www.w3.org/2000/svg" xmlns:xlink="http://www.w3.org/1999/xlink" width="112" zoomAndPan="magnify" viewBox="0 0 84 91.92" height="112" preserveAspectRatio="xMidYMid meet" version="1.0"><defs><clipPath id="6928ca078e"><path d="M 0.0351562 0 L 83.960938 0 L 83.960938 83.925781 L 0.0351562 83.925781 Z M 0.0351562 0 " clip-rule="nonzero"/></clipPath><clipPath id="608fb14d7e"><path d="M 61.773438 26 L 68 26 L 68 32 L 61.773438 32 Z M 61.773438 26 " clip-rule="nonzero"/></clipPath><clipPath id="0ab3b16025"><path d="M 64 23.394531 L 70 23.394531 L 70 33.882812 L 64 33.882812 Z M 64 23.394531 " clip-rule="nonzero"/></clipPath><clipPath id="f14e61ab7d"><path d="M 61.828125 37.320312 L 71.570312 37.320312 L 71.570312 47.808594 L 61.828125 47.808594 Z M 61.828125 37.320312 " clip-rule="nonzero"/></clipPath><clipPath id="44a953c4df"><path d="M 62.039062 51.679688 L 71.777344 51.679688 L 71.777344 62.917969 L 62.039062 62.917969 Z M 62.039062 51.679688 " clip-rule="nonzero"/></clipPath><clipPath id="f268ddac5f"><path d="M 12.070312 18.605469 L 55 18.605469 L 55 68 L 12.070312 68 Z M 12.070312 18.605469 " clip-rule="nonzero"/></clipPath><clipPath id="44b5b96cc3"><path d="M 29 18.605469 L 61.527344 18.605469 L 61.527344 51 L 29 51 Z M 29 18.605469 " clip-rule="nonzero"/></clipPath></defs><g clip-path="url(#6928ca078e)"><path fill="#ffffff" d="M 0.0351562 0 L 83.964844 0 L 83.964844 83.925781 L 0.0351562 83.925781 Z M 0.0351562 0 " fill-opacity="1" fill-rule="nonzero"/><path fill="#ffffff" d="M 0.0351562 0 L 83.964844 0 L 83.964844 83.925781 L 0.0351562 83.925781 Z M 0.0351562 0 " fill-opacity="1" fill-rule="nonzero"/></g><g clip-path="url(#608fb14d7e)"><path fill="#15dad5" d="M 64.816406 31.515625 L 63.292969 31.515625 C 63.09375 31.515625 62.898438 31.476562 62.710938 31.398438 C 62.527344 31.320312 62.359375 31.210938 62.21875 31.066406 C 62.074219 30.925781 61.964844 30.761719 61.886719 30.574219 C 61.8125 30.386719 61.773438 30.191406 61.773438 29.992188 L 61.773438 27.960938 C 61.773438 27.757812 61.8125 27.566406 61.886719 27.378906 C 61.964844 27.191406 62.074219 27.027344 62.21875 26.882812 C 62.359375 26.742188 62.527344 26.632812 62.710938 26.554688 C 62.898438 26.476562 63.09375 26.4375 63.292969 26.4375 L 66.847656 26.4375 C 66.988281 26.4375 67.105469 26.488281 67.207031 26.585938 C 67.304688 26.6875 67.355469 26.804688 67.355469 26.945312 C 67.355469 27.085938 67.304688 27.207031 67.207031 27.304688 C 67.105469 27.402344 66.988281 27.453125 66.847656 27.453125 L 63.292969 27.453125 C 63.152344 27.453125 63.035156 27.503906 62.933594 27.601562 C 62.835938 27.703125 62.785156 27.820312 62.785156 27.960938 L 62.785156 29.992188 C 62.785156 30.132812 62.835938 30.25 62.933594 30.351562 C 63.035156 30.449219 63.152344 30.5 63.292969 30.5 L 64.816406 30.5 C 64.957031 30.5 65.078125 30.546875 65.175781 30.648438 C 65.273438 30.746094 65.324219 30.867188 65.324219 31.007812 C 65.324219 31.148438 65.273438 31.265625 65.175781 31.367188 C 65.078125 31.464844 64.957031 31.515625 64.816406 31.515625 Z M 64.816406 31.515625 " fill-opacity="1" fill-rule="nonzero"/></g><path fill="#15dad5" d="M 70.398438 30.5 L 66.847656 30.5 C 66.707031 30.5 66.585938 30.449219 66.488281 30.351562 C 66.390625 30.25 66.339844 30.132812 66.339844 29.992188 C 66.339844 29.851562 66.390625 29.730469 66.488281 29.632812 C 66.585938 29.535156 66.707031 29.484375 66.847656 29.484375 L 70.398438 29.484375 C 70.539062 29.484375 70.660156 29.433594 70.757812 29.335938 C 70.859375 29.234375 70.90625 29.117188 70.90625 28.976562 L 70.90625 26.945312 C 70.90625 26.804688 70.859375 26.6875 70.757812 26.585938 C 70.660156 26.488281 70.539062 26.4375 70.398438 26.4375 L 68.878906 26.4375 C 68.738281 26.4375 68.617188 26.390625 68.519531 26.289062 C 68.417969 26.191406 68.371094 26.070312 68.371094 25.929688 C 68.371094 25.789062 68.417969 25.671875 68.519531 25.570312 C 68.617188 25.472656 68.738281 25.421875 68.878906 25.421875 L 70.398438 25.421875 C 70.601562 25.421875 70.796875 25.460938 70.984375 25.539062 C 71.167969 25.617188 71.332031 25.726562 71.476562 25.871094 C 71.621094 26.011719 71.730469 26.175781 71.808594 26.363281 C 71.882812 26.550781 71.921875 26.742188 71.921875 26.945312 L 71.921875 28.976562 C 71.921875 29.179688 71.882812 29.371094 71.808594 29.558594 C 71.730469 29.746094 71.621094 29.910156 71.476562 30.050781 C 71.332031 30.195312 71.167969 30.304688 70.984375 30.382812 C 70.796875 30.460938 70.601562 30.5 70.398438 30.5 Z M 70.398438 30.5 " fill-opacity="1" fill-rule="nonzero"/><g clip-path="url(#0ab3b16025)"><path fill="#15dad5" d="M 67.863281 33.542969 L 65.832031 33.542969 C 65.628906 33.542969 65.4375 33.503906 65.25 33.429688 C 65.0625 33.351562 64.898438 33.242188 64.757812 33.097656 C 64.613281 32.953125 64.503906 32.789062 64.425781 32.605469 C 64.347656 32.417969 64.308594 32.222656 64.308594 32.023438 L 64.308594 29.484375 C 64.308594 29.28125 64.347656 29.085938 64.425781 28.902344 C 64.503906 28.714844 64.613281 28.550781 64.757812 28.40625 C 64.898438 28.265625 65.0625 28.15625 65.25 28.078125 C 65.4375 28 65.628906 27.960938 65.832031 27.960938 L 67.863281 27.960938 C 68.003906 27.960938 68.121094 27.910156 68.222656 27.8125 C 68.320312 27.714844 68.371094 27.59375 68.371094 27.453125 L 68.371094 24.914062 C 68.371094 24.777344 68.320312 24.65625 68.222656 24.558594 C 68.121094 24.457031 68.003906 24.40625 67.863281 24.40625 L 65.832031 24.40625 C 65.691406 24.40625 65.574219 24.457031 65.472656 24.558594 C 65.375 24.65625 65.324219 24.777344 65.324219 24.914062 L 65.324219 26.945312 C 65.324219 27.085938 65.273438 27.207031 65.175781 27.304688 C 65.078125 27.402344 64.957031 27.453125 64.816406 27.453125 C 64.675781 27.453125 64.558594 27.402344 64.457031 27.304688 C 64.359375 27.207031 64.308594 27.085938 64.308594 26.945312 L 64.308594 24.914062 C 64.308594 24.714844 64.347656 24.519531 64.425781 24.332031 C 64.503906 24.148438 64.613281 23.980469 64.757812 23.839844 C 64.898438 23.695312 65.0625 23.585938 65.25 23.507812 C 65.4375 23.433594 65.628906 23.394531 65.832031 23.394531 L 67.863281 23.394531 C 68.0625 23.394531 68.257812 23.433594 68.445312 23.507812 C 68.632812 23.585938 68.796875 23.695312 68.9375 23.839844 C 69.082031 23.980469 69.191406 24.148438 69.269531 24.332031 C 69.347656 24.519531 69.386719 24.714844 69.386719 24.914062 L 69.386719 27.453125 C 69.386719 27.65625 69.347656 27.847656 69.269531 28.035156 C 69.191406 28.222656 69.082031 28.386719 68.9375 28.53125 C 68.796875 28.671875 68.632812 28.78125 68.445312 28.859375 C 68.257812 28.9375 68.0625 28.976562 67.863281 28.976562 L 65.832031 28.976562 C 65.691406 28.976562 65.574219 29.027344 65.472656 29.125 C 65.375 29.222656 65.324219 29.34375 65.324219 29.484375 L 65.324219 32.023438 C 65.324219 32.160156 65.375 32.28125 65.472656 32.378906 C 65.574219 32.480469 65.691406 32.527344 65.832031 32.527344 L 67.863281 32.527344 C 68.003906 32.527344 68.121094 32.480469 68.222656 32.378906 C 68.320312 32.28125 68.371094 32.160156 68.371094 32.023438 L 68.371094 29.992188 C 68.371094 29.851562 68.417969 29.730469 68.519531 29.632812 C 68.617188 29.535156 68.738281 29.484375 68.878906 29.484375 C 69.019531 29.484375 69.136719 29.535156 69.238281 29.632812 C 69.335938 29.730469 69.386719 29.851562 69.386719 29.992188 L 69.386719 32.023438 C 69.386719 32.222656 69.347656 32.417969 69.269531 32.605469 C 69.191406 32.789062 69.082031 32.953125 68.9375 33.097656 C 68.796875 33.242188 68.632812 33.351562 68.445312 33.429688 C 68.257812 33.503906 68.0625 33.542969 67.863281 33.542969 Z M 67.863281 33.542969 " fill-opacity="1" fill-rule="nonzero"/></g><path fill="#15dad5" d="M 66.339844 25.9375 C 66.199219 25.9375 66.078125 25.886719 65.980469 25.789062 C 65.878906 25.6875 65.832031 25.570312 65.828125 25.429688 C 65.828125 25.289062 65.878906 25.167969 65.976562 25.070312 C 66.074219 24.96875 66.195312 24.917969 66.335938 24.917969 C 66.476562 24.917969 66.597656 24.964844 66.695312 25.066406 C 66.796875 25.164062 66.847656 25.28125 66.847656 25.421875 L 66.847656 25.429688 C 66.847656 25.570312 66.796875 25.6875 66.699219 25.789062 C 66.597656 25.886719 66.480469 25.9375 66.339844 25.9375 Z M 66.339844 25.9375 " fill-opacity="1" fill-rule="nonzero"/><path fill="#15dad5" d="M 67.355469 32.027344 C 67.214844 32.027344 67.09375 31.976562 66.996094 31.878906 C 66.894531 31.78125 66.84375 31.660156 66.84375 31.519531 C 66.84375 31.378906 66.894531 31.257812 66.992188 31.160156 C 67.089844 31.058594 67.210938 31.007812 67.351562 31.007812 C 67.492188 31.007812 67.609375 31.058594 67.710938 31.15625 C 67.8125 31.253906 67.863281 31.375 67.863281 31.515625 L 67.863281 31.519531 C 67.863281 31.660156 67.8125 31.777344 67.714844 31.878906 C 67.613281 31.976562 67.496094 32.027344 67.355469 32.027344 Z M 67.355469 32.027344 " fill-opacity="1" fill-rule="nonzero"/><g clip-path="url(#f14e61ab7d)"><path fill="#15dad5" d="M 66.886719 47.679688 C 66.828125 47.679688 66.769531 47.667969 66.710938 47.648438 L 63.355469 46.53125 C 63.136719 46.457031 63.011719 46.308594 62.980469 46.078125 L 61.863281 37.96875 C 61.839844 37.800781 61.882812 37.652344 61.992188 37.527344 C 62.105469 37.398438 62.246094 37.332031 62.414062 37.332031 L 71.363281 37.332031 C 71.53125 37.332031 71.671875 37.398438 71.785156 37.523438 C 71.894531 37.652344 71.9375 37.800781 71.914062 37.96875 L 70.796875 46.078125 C 70.765625 46.304688 70.640625 46.457031 70.421875 46.53125 L 67.066406 47.648438 C 67.007812 47.667969 66.949219 47.679688 66.886719 47.679688 Z M 64.039062 45.582031 L 66.886719 46.527344 L 69.738281 45.578125 L 70.71875 38.453125 L 63.058594 38.453125 Z M 64.039062 45.582031 " fill-opacity="1" fill-rule="nonzero"/></g><path fill="#15dad5" d="M 66.050781 45.160156 C 65.960938 45.160156 65.878906 45.140625 65.800781 45.101562 L 64.679688 44.542969 C 64.542969 44.472656 64.449219 44.367188 64.402344 44.21875 C 64.351562 44.074219 64.363281 43.929688 64.429688 43.792969 C 64.5 43.65625 64.609375 43.5625 64.753906 43.511719 C 64.902344 43.464844 65.042969 43.472656 65.183594 43.542969 L 65.492188 43.699219 L 65.492188 40.6875 L 64.371094 40.6875 C 64.21875 40.6875 64.085938 40.632812 63.976562 40.523438 C 63.867188 40.414062 63.8125 40.285156 63.8125 40.128906 C 63.8125 39.976562 63.867188 39.84375 63.976562 39.734375 C 64.085938 39.625 64.21875 39.570312 64.371094 39.570312 L 66.050781 39.570312 C 66.203125 39.570312 66.335938 39.625 66.445312 39.734375 C 66.554688 39.84375 66.609375 39.976562 66.609375 40.128906 L 66.609375 44.601562 C 66.609375 44.757812 66.554688 44.886719 66.445312 44.996094 C 66.335938 45.105469 66.203125 45.160156 66.050781 45.160156 Z M 66.050781 45.160156 " fill-opacity="1" fill-rule="nonzero"/><path fill="#15dad5" d="M 67.726562 45.160156 C 67.585938 45.160156 67.464844 45.113281 67.355469 45.019531 C 67.25 44.925781 67.191406 44.8125 67.171875 44.671875 C 67.15625 44.53125 67.1875 44.402344 67.265625 44.285156 C 67.347656 44.167969 67.457031 44.09375 67.59375 44.058594 L 68.347656 43.871094 L 68.480469 42.925781 L 68.007812 42.925781 C 67.773438 42.925781 67.578125 42.84375 67.414062 42.679688 C 67.25 42.515625 67.167969 42.316406 67.167969 42.085938 L 67.167969 40.410156 C 67.167969 40.175781 67.25 39.980469 67.414062 39.816406 C 67.578125 39.652344 67.773438 39.570312 68.007812 39.570312 L 69.40625 39.570312 C 69.558594 39.570312 69.691406 39.625 69.800781 39.734375 C 69.910156 39.84375 69.964844 39.976562 69.964844 40.128906 C 69.964844 40.285156 69.910156 40.414062 69.800781 40.523438 C 69.691406 40.632812 69.558594 40.6875 69.40625 40.6875 L 68.285156 40.6875 L 68.285156 41.808594 L 68.800781 41.808594 C 69.035156 41.808594 69.230469 41.886719 69.394531 42.050781 C 69.558594 42.214844 69.640625 42.414062 69.640625 42.644531 C 69.640625 42.6875 69.636719 42.726562 69.632812 42.765625 L 69.398438 44.402344 C 69.363281 44.648438 69.222656 44.804688 68.980469 44.867188 L 67.863281 45.144531 C 67.820312 45.15625 67.773438 45.160156 67.726562 45.160156 Z M 68.527344 42.605469 Z M 68.527344 42.605469 " fill-opacity="1" fill-rule="nonzero"/><path fill="#15dad5" d="M 69.070312 59.28125 C 68.964844 59.28125 68.875 59.246094 68.800781 59.171875 C 68.726562 59.097656 68.6875 59.007812 68.6875 58.902344 L 68.6875 58.523438 C 68.6875 58.3125 68.613281 58.132812 68.464844 57.984375 C 68.316406 57.835938 68.136719 57.761719 67.929688 57.761719 C 67.800781 57.761719 67.738281 57.824219 67.738281 57.953125 C 67.738281 58.078125 67.800781 58.140625 67.929688 58.140625 C 68.035156 58.140625 68.121094 58.179688 68.195312 58.253906 C 68.269531 58.328125 68.308594 58.417969 68.308594 58.523438 L 68.308594 58.902344 C 68.308594 59.132812 68.394531 59.320312 68.566406 59.472656 C 68.394531 59.621094 68.308594 59.8125 68.308594 60.042969 L 68.308594 60.421875 C 68.308594 60.527344 68.269531 60.617188 68.195312 60.691406 C 68.121094 60.765625 68.035156 60.800781 67.929688 60.800781 C 67.800781 60.800781 67.738281 60.867188 67.738281 60.992188 C 67.738281 61.117188 67.800781 61.183594 67.929688 61.183594 C 68.136719 61.183594 68.316406 61.109375 68.464844 60.960938 C 68.613281 60.8125 68.6875 60.632812 68.6875 60.421875 L 68.6875 60.042969 C 68.6875 59.9375 68.726562 59.847656 68.800781 59.773438 C 68.875 59.699219 68.964844 59.660156 69.070312 59.660156 C 69.195312 59.660156 69.257812 59.597656 69.257812 59.472656 C 69.257812 59.34375 69.195312 59.28125 69.070312 59.28125 Z M 69.070312 59.28125 " fill-opacity="1" fill-rule="nonzero"/><path fill="#15dad5" d="M 64.886719 58.523438 C 64.886719 58.417969 64.925781 58.328125 65 58.253906 C 65.074219 58.179688 65.164062 58.140625 65.269531 58.140625 C 65.394531 58.140625 65.457031 58.078125 65.457031 57.953125 C 65.457031 57.824219 65.394531 57.761719 65.269531 57.761719 C 65.058594 57.761719 64.878906 57.835938 64.730469 57.984375 C 64.582031 58.132812 64.507812 58.3125 64.507812 58.523438 L 64.507812 58.902344 C 64.507812 59.007812 64.46875 59.097656 64.394531 59.171875 C 64.320312 59.246094 64.234375 59.28125 64.128906 59.28125 C 64 59.28125 63.9375 59.34375 63.9375 59.472656 C 63.9375 59.597656 64 59.660156 64.128906 59.660156 C 64.234375 59.660156 64.320312 59.699219 64.394531 59.773438 C 64.46875 59.847656 64.507812 59.9375 64.507812 60.042969 L 64.507812 60.421875 C 64.507812 60.632812 64.582031 60.8125 64.730469 60.960938 C 64.878906 61.109375 65.058594 61.183594 65.269531 61.183594 C 65.394531 61.183594 65.457031 61.117188 65.457031 60.992188 C 65.457031 60.867188 65.394531 60.800781 65.269531 60.800781 C 65.164062 60.800781 65.074219 60.765625 65 60.691406 C 64.925781 60.617188 64.886719 60.527344 64.886719 60.421875 L 64.886719 60.042969 C 64.886719 59.8125 64.800781 59.621094 64.628906 59.472656 C 64.800781 59.320312 64.886719 59.132812 64.886719 58.902344 Z M 64.886719 58.523438 " fill-opacity="1" fill-rule="nonzero"/><g clip-path="url(#44a953c4df)"><path fill="#15dad5" d="M 71.730469 51.679688 L 62.988281 51.679688 C 62.859375 51.679688 62.796875 51.742188 62.796875 51.871094 L 62.796875 52.441406 L 62.226562 52.441406 C 62.101562 52.441406 62.039062 52.503906 62.039062 52.628906 L 62.039062 62.894531 C 62.039062 63.019531 62.101562 63.082031 62.226562 63.082031 L 70.96875 63.082031 C 71.09375 63.082031 71.160156 63.019531 71.160156 62.894531 L 71.160156 62.324219 L 71.730469 62.324219 C 71.855469 62.324219 71.917969 62.257812 71.917969 62.132812 L 71.917969 51.871094 C 71.917969 51.742188 71.855469 51.679688 71.730469 51.679688 Z M 62.988281 54.152344 C 62.988281 53.886719 63.082031 53.664062 63.265625 53.480469 C 63.453125 53.292969 63.675781 53.199219 63.9375 53.199219 L 64.316406 53.199219 C 64.445312 53.199219 64.507812 53.265625 64.507812 53.390625 C 64.507812 53.515625 64.445312 53.582031 64.316406 53.582031 L 63.9375 53.582031 C 63.78125 53.582031 63.644531 53.636719 63.535156 53.75 C 63.421875 53.859375 63.367188 53.992188 63.367188 54.152344 L 63.367188 54.53125 C 63.367188 54.6875 63.421875 54.824219 63.535156 54.933594 C 63.644531 55.042969 63.78125 55.101562 63.9375 55.101562 L 64.316406 55.101562 C 64.445312 55.101562 64.507812 55.164062 64.507812 55.292969 C 64.507812 55.417969 64.445312 55.480469 64.316406 55.480469 L 63.9375 55.480469 C 63.675781 55.480469 63.453125 55.386719 63.265625 55.203125 C 63.082031 55.015625 62.988281 54.792969 62.988281 54.53125 Z M 70.777344 62.703125 L 62.417969 62.703125 L 62.417969 56.242188 L 70.777344 56.242188 Z M 65.742188 54.53125 L 65.554688 54.53125 C 65.371094 54.53125 65.210938 54.464844 65.082031 54.335938 C 64.953125 54.207031 64.886719 54.050781 64.886719 53.867188 C 64.886719 53.683594 64.953125 53.523438 65.082031 53.394531 C 65.210938 53.265625 65.371094 53.199219 65.554688 53.199219 L 65.839844 53.199219 C 65.996094 53.199219 66.128906 53.257812 66.242188 53.367188 C 66.351562 53.480469 66.40625 53.613281 66.40625 53.769531 C 66.40625 53.898438 66.34375 53.960938 66.21875 53.960938 C 66.089844 53.960938 66.027344 53.898438 66.027344 53.769531 C 66.027344 53.644531 65.964844 53.582031 65.839844 53.582031 L 65.554688 53.582031 C 65.472656 53.582031 65.40625 53.609375 65.351562 53.664062 C 65.296875 53.71875 65.269531 53.785156 65.269531 53.867188 C 65.269531 53.945312 65.296875 54.011719 65.351562 54.066406 C 65.40625 54.125 65.472656 54.152344 65.554688 54.152344 L 65.742188 54.152344 C 65.925781 54.152344 66.082031 54.214844 66.214844 54.34375 C 66.34375 54.476562 66.40625 54.632812 66.40625 54.816406 C 66.40625 55 66.34375 55.15625 66.214844 55.285156 C 66.082031 55.417969 65.925781 55.480469 65.742188 55.480469 L 65.457031 55.480469 C 65.300781 55.480469 65.167969 55.425781 65.054688 55.3125 C 64.945312 55.203125 64.886719 55.066406 64.886719 54.910156 C 64.886719 54.785156 64.949219 54.722656 65.078125 54.722656 C 65.203125 54.722656 65.269531 54.785156 65.269531 54.910156 C 65.269531 55.039062 65.332031 55.101562 65.457031 55.101562 L 65.742188 55.101562 C 65.820312 55.101562 65.890625 55.074219 65.945312 55.019531 C 66 54.960938 66.027344 54.894531 66.027344 54.816406 C 66.027344 54.738281 66 54.671875 65.945312 54.613281 C 65.890625 54.558594 65.820312 54.53125 65.742188 54.53125 Z M 67.644531 54.53125 L 67.453125 54.53125 C 67.269531 54.53125 67.113281 54.464844 66.984375 54.335938 C 66.851562 54.207031 66.789062 54.050781 66.789062 53.867188 C 66.789062 53.683594 66.851562 53.523438 66.984375 53.394531 C 67.113281 53.265625 67.269531 53.199219 67.453125 53.199219 L 67.738281 53.199219 C 67.894531 53.199219 68.03125 53.257812 68.140625 53.367188 C 68.253906 53.480469 68.308594 53.613281 68.308594 53.769531 C 68.308594 53.898438 68.246094 53.960938 68.117188 53.960938 C 67.992188 53.960938 67.929688 53.898438 67.929688 53.769531 C 67.929688 53.644531 67.863281 53.582031 67.738281 53.582031 L 67.453125 53.582031 C 67.375 53.582031 67.308594 53.609375 67.25 53.664062 C 67.195312 53.71875 67.167969 53.785156 67.167969 53.867188 C 67.167969 53.945312 67.195312 54.011719 67.25 54.066406 C 67.308594 54.125 67.375 54.152344 67.453125 54.152344 L 67.644531 54.152344 C 67.828125 54.152344 67.984375 54.214844 68.113281 54.34375 C 68.242188 54.476562 68.308594 54.632812 68.308594 54.816406 C 68.308594 55 68.242188 55.15625 68.113281 55.285156 C 67.984375 55.417969 67.828125 55.480469 67.644531 55.480469 L 67.359375 55.480469 C 67.199219 55.480469 67.066406 55.425781 66.957031 55.3125 C 66.84375 55.203125 66.789062 55.066406 66.789062 54.910156 C 66.789062 54.785156 66.851562 54.722656 66.976562 54.722656 C 67.105469 54.722656 67.167969 54.785156 67.167969 54.910156 C 67.167969 55.039062 67.230469 55.101562 67.359375 55.101562 L 67.644531 55.101562 C 67.722656 55.101562 67.789062 55.074219 67.84375 55.019531 C 67.902344 54.960938 67.929688 54.894531 67.929688 54.816406 C 67.929688 54.738281 67.902344 54.671875 67.84375 54.613281 C 67.789062 54.558594 67.722656 54.53125 67.644531 54.53125 Z M 69.257812 54.152344 L 69.257812 53.089844 L 70.511719 54.339844 L 69.449219 54.339844 C 69.320312 54.339844 69.257812 54.277344 69.257812 54.152344 Z M 71.539062 61.941406 L 71.160156 61.941406 L 71.160156 54.53125 C 71.160156 54.480469 71.140625 54.433594 71.105469 54.394531 L 69.203125 52.496094 C 69.164062 52.460938 69.121094 52.441406 69.070312 52.441406 L 63.175781 52.441406 L 63.175781 52.058594 L 71.539062 52.058594 Z M 71.539062 61.941406 " fill-opacity="1" fill-rule="nonzero"/></g><g clip-path="url(#f268ddac5f)"><path fill="#15dad5" d="M 53.339844 51.332031 C 52.792969 51.332031 52.355469 51.769531 52.355469 52.3125 L 52.355469 61.953125 L 17.964844 61.953125 L 17.964844 28.546875 L 24.84375 28.546875 C 25.386719 28.546875 25.828125 28.105469 25.828125 27.5625 L 25.828125 20.683594 L 49.21875 20.683594 C 49.765625 20.683594 50.203125 20.246094 50.203125 19.703125 C 50.203125 19.160156 49.765625 18.71875 49.21875 18.71875 L 24.84375 18.71875 C 24.582031 18.71875 24.332031 18.824219 24.148438 19.007812 L 16.289062 26.867188 C 16.105469 27.050781 16 27.300781 16 27.5625 L 16 30.511719 L 13.054688 30.511719 C 12.511719 30.511719 12.070312 30.949219 12.070312 31.492188 L 12.070312 66.863281 C 12.070312 67.40625 12.511719 67.847656 13.054688 67.847656 L 49.40625 67.847656 C 49.949219 67.847656 50.390625 67.40625 50.390625 66.863281 L 50.390625 63.917969 L 53.339844 63.917969 C 53.882812 63.917969 54.320312 63.476562 54.320312 62.933594 L 54.320312 52.3125 C 54.320312 51.769531 53.882812 51.332031 53.339844 51.332031 Z M 19.355469 26.578125 L 23.863281 22.074219 L 23.863281 26.578125 Z M 48.425781 65.882812 L 14.035156 65.882812 L 14.035156 32.476562 L 16 32.476562 L 16 62.933594 C 16 63.476562 16.441406 63.917969 16.984375 63.917969 L 48.425781 63.917969 Z M 48.425781 65.882812 " fill-opacity="1" fill-rule="nonzero"/></g><path fill="#15dad5" d="M 19.929688 53.109375 L 19.929688 59.003906 C 19.929688 59.546875 20.371094 59.988281 20.914062 59.988281 C 21.457031 59.988281 21.894531 59.546875 21.894531 59.003906 L 21.894531 53.109375 C 21.894531 52.566406 21.457031 52.125 20.914062 52.125 C 20.371094 52.125 19.929688 52.566406 19.929688 53.109375 Z M 19.929688 53.109375 " fill-opacity="1" fill-rule="nonzero"/><path fill="#15dad5" d="M 27.792969 49.179688 L 27.792969 43.285156 C 27.792969 42.742188 27.351562 42.300781 26.808594 42.300781 C 26.265625 42.300781 25.828125 42.742188 25.828125 43.285156 L 25.828125 49.179688 C 25.828125 49.722656 26.265625 50.160156 26.808594 50.160156 C 27.351562 50.160156 27.792969 49.722656 27.792969 49.179688 Z M 27.792969 49.179688 " fill-opacity="1" fill-rule="nonzero"/><path fill="#15dad5" d="M 31.722656 59.003906 L 31.722656 53.109375 C 31.722656 52.566406 31.28125 52.125 30.738281 52.125 C 30.195312 52.125 29.757812 52.566406 29.757812 53.109375 L 29.757812 59.003906 C 29.757812 59.546875 30.195312 59.988281 30.738281 59.988281 C 31.28125 59.988281 31.722656 59.546875 31.722656 59.003906 Z M 31.722656 59.003906 " fill-opacity="1" fill-rule="nonzero"/><path fill="#15dad5" d="M 34.667969 59.003906 L 34.667969 53.109375 C 34.667969 52.566406 34.230469 52.125 33.6875 52.125 C 33.144531 52.125 32.703125 52.566406 32.703125 53.109375 L 32.703125 59.003906 C 32.703125 59.546875 33.144531 59.988281 33.6875 59.988281 C 34.230469 59.988281 34.667969 59.546875 34.667969 59.003906 Z M 34.667969 59.003906 " fill-opacity="1" fill-rule="nonzero"/><path fill="#15dad5" d="M 25.828125 59.988281 C 27.453125 59.988281 28.773438 58.664062 28.773438 57.039062 L 28.773438 55.074219 C 28.773438 53.449219 27.453125 52.125 25.828125 52.125 C 24.199219 52.125 22.878906 53.449219 22.878906 55.074219 L 22.878906 57.039062 C 22.878906 58.664062 24.199219 59.988281 25.828125 59.988281 Z M 24.84375 55.074219 C 24.84375 54.53125 25.285156 54.089844 25.828125 54.089844 C 26.367188 54.089844 26.808594 54.53125 26.808594 55.074219 L 26.808594 57.039062 C 26.808594 57.582031 26.367188 58.023438 25.828125 58.023438 C 25.285156 58.023438 24.84375 57.582031 24.84375 57.039062 Z M 24.84375 55.074219 " fill-opacity="1" fill-rule="nonzero"/><path fill="#15dad5" d="M 21.894531 39.351562 L 21.894531 33.457031 C 21.894531 32.914062 21.457031 32.476562 20.914062 32.476562 C 20.371094 32.476562 19.929688 32.914062 19.929688 33.457031 L 19.929688 39.351562 C 19.929688 39.894531 20.371094 40.335938 20.914062 40.335938 C 21.457031 40.335938 21.894531 39.894531 21.894531 39.351562 Z M 21.894531 39.351562 " fill-opacity="1" fill-rule="nonzero"/><path fill="#15dad5" d="M 30.738281 40.335938 C 31.28125 40.335938 31.722656 39.894531 31.722656 39.351562 L 31.722656 33.457031 C 31.722656 32.914062 31.28125 32.476562 30.738281 32.476562 C 30.195312 32.476562 29.757812 32.914062 29.757812 33.457031 L 29.757812 39.351562 C 29.757812 39.894531 30.195312 40.335938 30.738281 40.335938 Z M 30.738281 40.335938 " fill-opacity="1" fill-rule="nonzero"/><path fill="#15dad5" d="M 28.773438 35.421875 C 28.773438 33.796875 27.453125 32.476562 25.828125 32.476562 C 24.199219 32.476562 22.878906 33.796875 22.878906 35.421875 L 22.878906 37.386719 C 22.878906 39.011719 24.199219 40.335938 25.828125 40.335938 C 27.453125 40.335938 28.773438 39.011719 28.773438 37.386719 Z M 26.808594 37.386719 C 26.808594 37.929688 26.367188 38.371094 25.828125 38.371094 C 25.285156 38.371094 24.84375 37.929688 24.84375 37.386719 L 24.84375 35.421875 C 24.84375 34.882812 25.285156 34.441406 25.828125 34.441406 C 26.367188 34.441406 26.808594 34.882812 26.808594 35.421875 Z M 26.808594 37.386719 " fill-opacity="1" fill-rule="nonzero"/><path fill="#15dad5" d="M 29.757812 29.527344 L 29.757812 23.632812 C 29.757812 23.089844 29.316406 22.648438 28.773438 22.648438 C 28.230469 22.648438 27.792969 23.089844 27.792969 23.632812 L 27.792969 29.527344 C 27.792969 30.070312 28.230469 30.511719 28.773438 30.511719 C 29.316406 30.511719 29.757812 30.070312 29.757812 29.527344 Z M 29.757812 29.527344 " fill-opacity="1" fill-rule="nonzero"/><path fill="#15dad5" d="M 24.84375 47.214844 L 24.84375 45.25 C 24.84375 43.625 23.523438 42.300781 21.894531 42.300781 C 20.269531 42.300781 18.949219 43.625 18.949219 45.25 L 18.949219 47.214844 C 18.949219 48.839844 20.269531 50.160156 21.894531 50.160156 C 23.523438 50.160156 24.84375 48.839844 24.84375 47.214844 Z M 20.914062 47.214844 L 20.914062 45.25 C 20.914062 44.707031 21.355469 44.265625 21.894531 44.265625 C 22.4375 44.265625 22.878906 44.707031 22.878906 45.25 L 22.878906 47.214844 C 22.878906 47.753906 22.4375 48.195312 21.894531 48.195312 C 21.355469 48.195312 20.914062 47.753906 20.914062 47.214844 Z M 20.914062 47.214844 " fill-opacity="1" fill-rule="nonzero"/><path fill="#15dad5" d="M 44.496094 59.003906 L 44.496094 53.109375 C 44.496094 52.566406 44.054688 52.125 43.511719 52.125 C 42.96875 52.125 42.53125 52.566406 42.53125 53.109375 L 42.53125 59.003906 C 42.53125 59.546875 42.96875 59.988281 43.511719 59.988281 C 44.054688 59.988281 44.496094 59.546875 44.496094 59.003906 Z M 44.496094 59.003906 " fill-opacity="1" fill-rule="nonzero"/><path fill="#15dad5" d="M 47.441406 59.003906 L 47.441406 53.109375 C 47.441406 52.566406 47.003906 52.125 46.460938 52.125 C 45.917969 52.125 45.476562 52.566406 45.476562 53.109375 L 45.476562 59.003906 C 45.476562 59.546875 45.917969 59.988281 46.460938 59.988281 C 47.003906 59.988281 47.441406 59.546875 47.441406 59.003906 Z M 47.441406 59.003906 " fill-opacity="1" fill-rule="nonzero"/><path fill="#15dad5" d="M 50.390625 59.003906 L 50.390625 53.109375 C 50.390625 52.566406 49.949219 52.125 49.40625 52.125 C 48.863281 52.125 48.425781 52.566406 48.425781 53.109375 L 48.425781 59.003906 C 48.425781 59.546875 48.863281 59.988281 49.40625 59.988281 C 49.949219 59.988281 50.390625 59.546875 50.390625 59.003906 Z M 50.390625 59.003906 " fill-opacity="1" fill-rule="nonzero"/><path fill="#15dad5" d="M 41.546875 57.039062 L 41.546875 55.074219 C 41.546875 53.449219 40.226562 52.125 38.601562 52.125 C 36.972656 52.125 35.652344 53.449219 35.652344 55.074219 L 35.652344 57.039062 C 35.652344 58.664062 36.972656 59.988281 38.601562 59.988281 C 40.226562 59.988281 41.546875 58.664062 41.546875 57.039062 Z M 37.617188 57.039062 L 37.617188 55.074219 C 37.617188 54.53125 38.058594 54.089844 38.601562 54.089844 C 39.140625 54.089844 39.582031 54.53125 39.582031 55.074219 L 39.582031 57.039062 C 39.582031 57.582031 39.140625 58.023438 38.601562 58.023438 C 38.058594 58.023438 37.617188 57.582031 37.617188 57.039062 Z M 37.617188 57.039062 " fill-opacity="1" fill-rule="nonzero"/><g clip-path="url(#44b5b96cc3)"><path fill="#15dad5" d="M 59.480469 42.21875 L 50.953125 35.589844 C 50.953125 35.589844 51.554688 34.992188 51.558594 34.988281 C 51.933594 34.609375 51.929688 33.972656 51.558594 33.597656 L 51.332031 33.375 C 53.117188 29.128906 55.667969 25.316406 58.933594 22.054688 L 60.589844 20.398438 C 60.910156 20.074219 60.96875 19.574219 60.730469 19.1875 C 60.492188 18.796875 60.015625 18.625 59.582031 18.769531 L 55.6875 20.070312 C 51.585938 21.433594 47.789062 23.714844 44.628906 26.671875 L 44.609375 26.648438 C 44.226562 26.265625 43.605469 26.265625 43.21875 26.648438 L 42.523438 27.34375 L 40.441406 25.261719 C 40.058594 24.875 39.433594 24.875 39.050781 25.261719 L 36.621094 27.691406 C 36.625 27.648438 36.632812 27.605469 36.632812 27.5625 L 36.632812 25.597656 C 36.632812 23.972656 35.3125 22.648438 33.6875 22.648438 C 32.0625 22.648438 30.738281 23.972656 30.738281 25.597656 L 30.738281 27.5625 C 30.738281 29.1875 32.0625 30.511719 33.6875 30.511719 C 34.703125 30.511719 35.597656 29.996094 36.128906 29.210938 C 36.171875 29.289062 36.207031 29.363281 36.273438 29.429688 L 38.355469 31.511719 L 37.660156 32.207031 C 37.476562 32.390625 37.375 32.640625 37.375 32.902344 C 37.375 33.164062 37.476562 33.414062 37.660156 33.597656 L 37.683594 33.617188 C 34.726562 36.777344 32.449219 40.574219 31.082031 44.675781 L 29.78125 48.570312 C 29.636719 49.003906 29.808594 49.476562 30.195312 49.71875 C 30.554688 49.9375 31.070312 49.917969 31.410156 49.578125 L 33.066406 47.921875 C 36.332031 44.65625 40.140625 42.105469 44.386719 40.320312 C 44.386719 40.320312 44.609375 40.546875 44.609375 40.546875 C 44.992188 40.925781 45.617188 40.925781 46 40.546875 L 46.601562 39.941406 L 53.230469 48.46875 C 54.015625 49.476562 55.195312 50.097656 56.46875 50.175781 C 57.734375 50.257812 59 49.777344 59.894531 48.882812 C 61.761719 47.015625 61.5625 43.839844 59.480469 42.21875 Z M 34.667969 27.5625 C 34.667969 28.105469 34.230469 28.546875 33.6875 28.546875 C 33.144531 28.546875 32.703125 28.105469 32.703125 27.5625 L 32.703125 25.597656 C 32.703125 25.054688 33.144531 24.613281 33.6875 24.613281 C 34.230469 24.613281 34.667969 25.054688 34.667969 25.597656 Z M 56.308594 21.933594 L 56.339844 21.921875 C 53.644531 24.878906 51.464844 28.21875 49.832031 31.875 L 46.019531 28.058594 C 48.960938 25.320312 52.496094 23.203125 56.308594 21.933594 Z M 39.746094 27.34375 L 41.136719 28.734375 L 39.746094 30.125 L 38.355469 28.734375 Z M 32.933594 45.328125 L 32.945312 45.296875 C 34.214844 41.484375 36.332031 37.949219 39.070312 35.007812 L 42.886719 38.820312 C 39.230469 40.453125 35.890625 42.632812 32.933594 45.328125 Z M 45.304688 38.460938 L 39.746094 32.902344 L 43.914062 28.734375 L 49.472656 34.292969 Z M 58.503906 47.492188 C 57.460938 48.535156 55.6875 48.421875 54.785156 47.261719 L 48.003906 38.542969 L 49.554688 36.988281 C 49.554688 36.988281 58.261719 43.761719 58.273438 43.769531 C 59.433594 44.671875 59.539062 46.457031 58.503906 47.492188 Z M 58.503906 47.492188 " fill-opacity="1" fill-rule="nonzero"/></g></svg>