<svg xmlns="http://www.w3.org/2000/svg" xmlns:xlink="http://www.w3.org/1999/xlink" width="112" zoomAndPan="magnify" viewBox="0 0 84 91.92" height="112" preserveAspectRatio="xMidYMid meet" version="1.0"><defs><clipPath id="9a89f77c12"><path d="M 0.0351562 0 L 83.960938 0 L 83.960938 83.925781 L 0.0351562 83.925781 Z M 0.0351562 0 " clip-rule="nonzero"/></clipPath><clipPath id="d1f6741247"><path d="M 16 8.394531 L 66 8.394531 L 66 39 L 16 39 Z M 16 8.394531 " clip-rule="nonzero"/></clipPath><clipPath id="781eacc02e"><path d="M 10.089844 51 L 30 51 L 30 70.589844 L 10.089844 70.589844 Z M 10.089844 51 " clip-rule="nonzero"/></clipPath><clipPath id="2f2d235d5c"><path d="M 51 51 L 72 51 L 72 70.589844 L 51 70.589844 Z M 51 51 " clip-rule="nonzero"/></clipPath><clipPath id="ed1d24b1c1"><path d="M 32.480469 64 L 38 64 L 38 74 L 32.480469 74 Z M 32.480469 64 " clip-rule="nonzero"/></clipPath><clipPath id="311b1f76dc"><path d="M 44 64 L 48.964844 64 L 48.964844 74 L 44 74 Z M 44 64 " clip-rule="nonzero"/></clipPath><clipPath id="ce0008f6c9"><path d="M 38 63.070312 L 44 63.070312 L 44 75 L 38 75 Z M 38 63.070312 " clip-rule="nonzero"/></clipPath></defs><g clip-path="url(#9a89f77c12)"><path fill="#ffffff" d="M 0.0351562 0 L 83.964844 0 L 83.964844 83.925781 L 0.0351562 83.925781 Z M 0.0351562 0 " fill-opacity="1" fill-rule="nonzero"/><path fill="#ffffff" d="M 0.0351562 0 L 83.964844 0 L 83.964844 83.925781 L 0.0351562 83.925781 Z M 0.0351562 0 " fill-opacity="1" fill-rule="nonzero"/></g><g clip-path="url(#d1f6741247)"><path fill="#15dad5" d="M 58.007812 20.386719 C 57.253906 16.4375 53.625 14.890625 50.449219 14.742188 C 48.804688 10.9375 45.285156 8.5 41.382812 8.5 C 37.210938 8.5 34.171875 11.675781 32.664062 14.65625 C 31.066406 13.957031 28.160156 13.464844 25.660156 14.722656 C 23.972656 15.566406 21.941406 17.515625 21.628906 22 C 17.433594 23.011719 15.8125 27.164062 16.101562 30.738281 C 16.476562 35.386719 20.363281 38.277344 26.238281 38.277344 C 26.351562 38.277344 55.339844 38.351562 55.238281 38.351562 C 60.40625 38.351562 65.984375 34.90625 65.984375 29.339844 C 65.984375 24.96875 62.730469 21.351562 58.007812 20.386719 Z M 55.238281 36.933594 L 26.242188 36.855469 C 21.09375 36.855469 17.832031 34.527344 17.519531 30.625 C 17.257812 27.417969 18.675781 23.90625 22.425781 23.289062 C 22.757812 23.234375 23.007812 22.953125 23.019531 22.613281 C 23.136719 19.25 24.242188 17.019531 26.296875 15.992188 C 28.230469 15.023438 31.191406 15.28125 32.589844 16.21875 C 32.636719 16.253906 32.6875 16.285156 32.742188 16.304688 C 33.078125 16.445312 33.464844 16.316406 33.640625 15.996094 C 33.6875 15.910156 33.714844 15.820312 33.726562 15.730469 C 34.957031 13.007812 37.660156 9.921875 41.382812 9.921875 C 45.511719 9.921875 48.183594 12.925781 49.246094 15.542969 C 49.292969 15.886719 49.589844 16.152344 49.949219 16.152344 C 50.972656 16.152344 56.117188 16.390625 56.679688 21.078125 C 56.71875 21.394531 56.960938 21.644531 57.273438 21.695312 C 61.566406 22.382812 64.5625 25.527344 64.5625 29.339844 C 64.5625 34.027344 59.722656 36.929688 55.238281 36.933594 Z M 55.238281 36.933594 " fill-opacity="1" fill-rule="nonzero"/></g><path fill="#15dad5" d="M 41.613281 15.425781 C 41.609375 15.425781 41.609375 15.425781 41.605469 15.425781 C 41.601562 15.425781 41.601562 15.425781 41.601562 15.425781 C 36.1875 15.425781 31.78125 19.832031 31.78125 25.246094 C 31.78125 30.660156 36.1875 35.066406 41.601562 35.066406 C 41.601562 35.066406 41.601562 35.066406 41.605469 35.066406 C 41.609375 35.066406 41.613281 35.066406 41.613281 35.066406 C 47.023438 35.058594 51.421875 30.65625 51.421875 25.246094 C 51.421875 19.835938 47.023438 15.429688 41.613281 15.425781 Z M 49.070312 21.421875 C 48.324219 21.644531 47.578125 21.8125 46.835938 21.957031 C 46.503906 20.246094 45.921875 18.761719 45.15625 17.644531 C 46.839844 18.4375 48.222656 19.769531 49.070312 21.421875 Z M 49.445312 28.226562 C 48.617188 27.980469 47.796875 27.792969 46.984375 27.640625 C 47.175781 26.234375 47.207031 24.847656 47.050781 23.363281 C 47.554688 23.265625 49.148438 22.933594 49.613281 22.722656 C 49.863281 23.519531 50.148438 26.378906 49.445312 28.226562 Z M 33.558594 22.835938 C 33.976562 22.953125 34.890625 23.183594 36.160156 23.398438 C 36.015625 24.785156 36.023438 26.136719 36.222656 27.609375 C 35.070312 27.804688 34.203125 28.011719 33.726562 28.136719 C 33.078125 26.382812 33.042969 24.558594 33.558594 22.835938 Z M 37.566406 23.605469 C 38.554688 23.730469 39.675781 23.828125 40.894531 23.855469 L 40.894531 27.160156 C 39.703125 27.1875 38.605469 27.285156 37.632812 27.40625 C 37.460938 26.148438 37.433594 24.90625 37.566406 23.605469 Z M 42.316406 16.984375 C 43.722656 17.507812 44.902344 19.53125 45.429688 22.183594 C 44.363281 22.328125 43.316406 22.40625 42.316406 22.425781 Z M 40.894531 16.984375 L 40.894531 22.421875 C 39.757812 22.390625 38.710938 22.300781 37.78125 22.183594 C 38.308594 19.53125 39.492188 17.507812 40.894531 16.984375 Z M 40.894531 28.59375 L 40.894531 33.503906 C 39.582031 33.015625 38.464844 31.214844 37.894531 28.816406 C 38.796875 28.707031 39.800781 28.621094 40.894531 28.59375 Z M 42.316406 33.503906 L 42.316406 28.589844 C 43.28125 28.609375 44.289062 28.683594 45.320312 28.816406 C 44.746094 31.214844 43.628906 33.015625 42.316406 33.503906 Z M 42.316406 27.15625 L 42.316406 23.847656 C 43.382812 23.828125 44.496094 23.757812 45.644531 23.597656 C 45.78125 24.933594 45.746094 26.1875 45.578125 27.410156 C 44.457031 27.261719 43.359375 27.175781 42.316406 27.15625 Z M 38.0625 17.640625 C 37.289062 18.761719 36.703125 20.257812 36.371094 21.980469 C 35.316406 21.800781 34.519531 21.617188 34.09375 21.507812 C 34.941406 19.808594 36.339844 18.445312 38.0625 17.640625 Z M 34.339844 29.449219 C 34.8125 29.332031 35.539062 29.171875 36.472656 29.015625 C 36.820312 30.527344 37.367188 31.839844 38.0625 32.851562 C 36.5 32.121094 35.203125 30.929688 34.339844 29.449219 Z M 45.15625 32.84375 C 45.84375 31.839844 46.390625 30.535156 46.734375 29.039062 C 47.421875 29.167969 48.117188 29.328125 48.8125 29.527344 C 47.953125 30.96875 46.679688 32.128906 45.15625 32.84375 Z M 45.15625 32.84375 " fill-opacity="1" fill-rule="nonzero"/><g clip-path="url(#781eacc02e)"><path fill="#15dad5" d="M 14.417969 53.269531 L 12.933594 54.515625 C 12.425781 54.945312 12.371094 55.695312 12.789062 56.1875 L 13.972656 57.59375 C 13.90625 57.703125 13.839844 57.816406 13.773438 57.9375 L 11.972656 57.621094 C 11.335938 57.507812 10.710938 57.925781 10.59375 58.582031 L 10.253906 60.488281 C 10.136719 61.136719 10.570312 61.753906 11.21875 61.867188 L 13.027344 62.1875 C 13.046875 62.3125 13.070312 62.441406 13.09375 62.570312 L 11.503906 63.492188 C 10.945312 63.8125 10.734375 64.535156 11.066406 65.113281 L 12.03125 66.789062 C 12.355469 67.351562 13.078125 67.554688 13.65625 67.226562 L 15.253906 66.304688 C 15.351562 66.390625 15.449219 66.472656 15.550781 66.554688 L 14.921875 68.277344 C 14.695312 68.894531 15.007812 69.574219 15.628906 69.800781 C 17.464844 70.449219 17.511719 70.539062 17.859375 70.539062 C 18.332031 70.539062 18.796875 70.25 18.976562 69.757812 L 19.605469 68.03125 C 19.734375 68.03125 19.863281 68.03125 19.992188 68.03125 L 20.621094 69.753906 C 20.84375 70.367188 21.523438 70.691406 22.148438 70.464844 L 23.960938 69.800781 C 24.578125 69.578125 24.890625 68.890625 24.667969 68.277344 L 24.035156 66.558594 C 24.140625 66.472656 24.242188 66.390625 24.34375 66.304688 L 25.929688 67.222656 C 26.496094 67.554688 27.226562 67.359375 27.554688 66.792969 L 28.527344 65.117188 C 28.855469 64.550781 28.664062 63.824219 28.09375 63.492188 L 26.492188 62.570312 C 26.519531 62.441406 26.542969 62.3125 26.558594 62.1875 L 28.378906 61.867188 C 29.023438 61.753906 29.460938 61.140625 29.34375 60.488281 L 29.003906 58.582031 C 28.890625 57.9375 28.265625 57.507812 27.628906 57.621094 L 25.816406 57.9375 C 25.753906 57.820312 25.691406 57.707031 25.621094 57.597656 L 26.800781 56.1875 C 27.21875 55.6875 27.15625 54.9375 26.65625 54.515625 L 25.183594 53.273438 C 24.695312 52.863281 23.945312 52.902344 23.507812 53.417969 L 22.320312 54.828125 C 22.203125 54.78125 22.082031 54.738281 21.957031 54.699219 L 21.957031 52.855469 C 21.957031 52.199219 21.421875 51.667969 20.769531 51.667969 L 18.828125 51.667969 C 18.175781 51.667969 17.640625 52.199219 17.640625 52.855469 L 17.640625 54.691406 C 17.519531 54.734375 17.394531 54.777344 17.269531 54.828125 L 16.089844 53.421875 C 15.679688 52.925781 14.929688 52.839844 14.417969 53.269531 Z M 17.398438 56.332031 C 17.765625 56.140625 18.136719 56.007812 18.492188 55.933594 C 18.824219 55.867188 19.0625 55.574219 19.0625 55.238281 L 19.0625 53.089844 L 20.535156 53.089844 L 20.535156 55.238281 C 20.535156 55.570312 20.765625 55.855469 21.085938 55.929688 C 21.492188 56.023438 21.863281 56.15625 22.183594 56.328125 C 22.480469 56.484375 22.84375 56.410156 23.058594 56.15625 L 24.445312 54.507812 L 25.5625 55.453125 L 24.183594 57.097656 C 23.96875 57.355469 23.960938 57.726562 24.167969 57.988281 C 24.398438 58.292969 24.601562 58.640625 24.753906 59.003906 C 24.882812 59.3125 25.207031 59.492188 25.53125 59.429688 L 27.648438 59.058594 L 27.90625 60.507812 L 25.78125 60.878906 C 25.457031 60.9375 25.210938 61.214844 25.195312 61.542969 C 25.175781 61.933594 25.109375 62.328125 24.992188 62.714844 C 24.898438 63.03125 25.035156 63.367188 25.320312 63.53125 L 27.179688 64.605469 L 26.441406 65.878906 L 24.589844 64.804688 C 24.304688 64.640625 23.9375 64.691406 23.714844 64.9375 C 23.460938 65.207031 23.15625 65.460938 22.789062 65.707031 C 22.515625 65.886719 22.402344 66.234375 22.515625 66.539062 L 23.253906 68.546875 L 21.878906 69.050781 L 21.140625 67.03125 C 21.023438 66.710938 20.699219 66.515625 20.359375 66.574219 C 19.996094 66.632812 19.601562 66.632812 19.238281 66.574219 C 18.898438 66.511719 18.574219 66.710938 18.457031 67.03125 L 17.722656 69.050781 L 16.335938 68.546875 L 17.070312 66.539062 C 17.183594 66.230469 17.070312 65.886719 16.796875 65.707031 C 16.449219 65.472656 16.152344 65.21875 15.886719 64.9375 C 15.660156 64.691406 15.296875 64.640625 15.011719 64.804688 L 13.148438 65.878906 L 12.414062 64.605469 L 14.269531 63.53125 C 14.554688 63.367188 14.6875 63.03125 14.59375 62.714844 C 14.480469 62.332031 14.410156 61.9375 14.390625 61.542969 C 14.375 61.214844 14.132812 60.9375 13.804688 60.878906 L 11.691406 60.507812 L 11.953125 59.058594 L 14.054688 59.429688 C 14.378906 59.488281 14.695312 59.316406 14.828125 59.019531 C 15.015625 58.597656 15.207031 58.273438 15.421875 58 C 15.636719 57.738281 15.632812 57.359375 15.414062 57.097656 L 14.027344 55.453125 L 15.152344 54.507812 L 16.527344 56.15625 C 16.742188 56.410156 17.101562 56.480469 17.398438 56.332031 Z M 17.398438 56.332031 " fill-opacity="1" fill-rule="nonzero"/></g><path fill="#15dad5" d="M 22.609375 63.363281 C 24.550781 60.875 22.507812 57.234375 19.363281 57.636719 C 17.414062 57.875 16.019531 59.644531 16.261719 61.609375 C 16.652344 64.75 20.667969 65.847656 22.609375 63.363281 Z M 19.535156 59.042969 C 21.429688 58.808594 22.65625 60.992188 21.488281 62.488281 C 20.328125 63.976562 17.910156 63.335938 17.671875 61.433594 C 17.527344 60.261719 18.355469 59.191406 19.535156 59.042969 Z M 19.535156 59.042969 " fill-opacity="1" fill-rule="nonzero"/><path fill="#15dad5" d="M 41.351562 40.15625 C 40.960938 40.15625 40.640625 40.472656 40.640625 40.867188 L 40.628906 57.386719 C 40.628906 58.570312 41.589844 59.527344 42.765625 59.527344 C 44.085938 59.519531 45.730469 59.535156 45.976562 59.511719 C 47.070312 61.386719 49.90625 60.589844 49.90625 58.453125 C 49.90625 57.289062 48.960938 56.339844 47.796875 56.339844 C 46.75 56.339844 45.882812 57.105469 45.714844 58.105469 L 42.765625 58.105469 C 42.375 58.105469 42.050781 57.789062 42.050781 57.390625 L 42.0625 40.867188 C 42.0625 40.472656 41.746094 40.15625 41.351562 40.15625 Z M 47.796875 57.761719 C 48.175781 57.761719 48.488281 58.074219 48.488281 58.453125 C 48.488281 58.835938 48.175781 59.144531 47.796875 59.144531 C 47.414062 59.144531 47.101562 58.835938 47.101562 58.453125 C 47.101562 58.074219 47.414062 57.761719 47.796875 57.761719 Z M 47.796875 57.761719 " fill-opacity="1" fill-rule="nonzero"/><path fill="#15dad5" d="M 36.753906 52.597656 L 33.804688 52.597656 C 33.636719 51.597656 32.769531 50.832031 31.726562 50.832031 C 30.558594 50.832031 29.613281 51.78125 29.613281 52.945312 C 29.613281 55.078125 32.449219 55.878906 33.542969 54.003906 C 33.777344 54.027344 35.6875 54.011719 36.753906 54.015625 C 37.933594 54.015625 38.890625 53.058594 38.890625 51.878906 L 38.878906 40.867188 C 38.878906 40.472656 38.558594 40.15625 38.167969 40.15625 C 37.773438 40.15625 37.457031 40.476562 37.457031 40.867188 L 37.46875 51.878906 C 37.46875 52.273438 37.148438 52.597656 36.753906 52.597656 Z M 31.726562 53.636719 C 31.34375 53.636719 31.03125 53.328125 31.03125 52.945312 C 31.03125 52.5625 31.34375 52.253906 31.726562 52.253906 C 32.105469 52.253906 32.417969 52.5625 32.417969 52.945312 C 32.417969 53.328125 32.105469 53.636719 31.726562 53.636719 Z M 31.726562 53.636719 " fill-opacity="1" fill-rule="nonzero"/><path fill="#15dad5" d="M 47.535156 40.136719 C 47.144531 40.136719 46.824219 40.453125 46.824219 40.84375 L 46.824219 42.601562 C 46.824219 43.53125 47.582031 44.296875 48.511719 44.304688 L 58.777344 44.421875 C 58.929688 44.425781 59.058594 44.550781 59.058594 44.707031 L 59.074219 46.96875 L 58.484375 46.28125 C 58.226562 45.980469 57.777344 45.949219 57.480469 46.207031 C 57.183594 46.460938 57.152344 46.910156 57.40625 47.207031 L 59.25 49.347656 C 59.539062 49.683594 60.054688 49.671875 60.335938 49.339844 L 62.175781 47.144531 C 62.425781 46.84375 62.386719 46.398438 62.085938 46.144531 C 61.789062 45.894531 61.339844 45.929688 61.085938 46.234375 L 60.496094 46.9375 L 60.480469 44.695312 C 60.472656 43.773438 59.714844 43.011719 58.792969 43.003906 L 48.527344 42.886719 C 48.371094 42.882812 48.246094 42.757812 48.246094 42.601562 L 48.246094 40.84375 C 48.246094 40.453125 47.929688 40.136719 47.535156 40.136719 Z M 47.535156 40.136719 " fill-opacity="1" fill-rule="nonzero"/><path fill="#15dad5" d="M 31.902344 40.136719 C 31.511719 40.136719 31.191406 40.453125 31.191406 40.84375 L 31.191406 42.601562 C 31.191406 42.757812 31.066406 42.882812 30.910156 42.886719 L 20.644531 43.003906 C 19.722656 43.011719 18.96875 43.773438 18.960938 44.695312 L 18.941406 46.9375 L 18.351562 46.230469 C 18.101562 45.929688 17.652344 45.894531 17.351562 46.144531 C 17.050781 46.398438 17.011719 46.84375 17.265625 47.144531 L 19.105469 49.34375 C 19.394531 49.6875 19.910156 49.671875 20.1875 49.347656 L 22.03125 47.207031 C 22.289062 46.910156 22.253906 46.460938 21.957031 46.207031 C 21.660156 45.949219 21.210938 45.980469 20.957031 46.28125 L 20.363281 46.96875 L 20.382812 44.707031 C 20.382812 44.550781 20.507812 44.425781 20.664062 44.421875 L 30.929688 44.304688 C 31.859375 44.296875 32.613281 43.53125 32.613281 42.601562 L 32.613281 40.84375 C 32.613281 40.453125 32.296875 40.136719 31.902344 40.136719 Z M 31.902344 40.136719 " fill-opacity="1" fill-rule="nonzero"/><g clip-path="url(#2f2d235d5c)"><path fill="#15dad5" d="M 71.890625 54.585938 C 71.890625 53.035156 70.628906 51.773438 69.078125 51.773438 L 54.320312 51.773438 C 52.769531 51.773438 51.503906 53.035156 51.503906 54.585938 L 51.503906 67.621094 C 51.503906 69.171875 52.769531 70.433594 54.320312 70.433594 L 69.078125 70.433594 C 70.628906 70.433594 71.890625 69.171875 71.890625 67.621094 Z M 52.925781 57.519531 L 70.472656 57.519531 L 70.472656 64.285156 C 56.554688 64.285156 88.566406 64.28125 52.925781 64.285156 Z M 54.320312 53.191406 L 69.078125 53.191406 C 69.847656 53.191406 70.472656 53.816406 70.472656 54.585938 L 70.472656 56.101562 L 52.925781 56.101562 L 52.925781 54.585938 C 52.925781 53.816406 53.550781 53.191406 54.320312 53.191406 Z M 69.078125 69.015625 L 54.320312 69.015625 C 53.550781 69.015625 52.925781 68.386719 52.925781 67.621094 L 52.925781 65.703125 C 80.003906 65.707031 66.59375 65.703125 70.472656 65.703125 L 70.472656 67.621094 C 70.472656 68.386719 69.847656 69.015625 69.078125 69.015625 Z M 69.078125 69.015625 " fill-opacity="1" fill-rule="nonzero"/></g><path fill="#15dad5" d="M 55.953125 61.695312 L 56.421875 61.695312 C 56.8125 61.695312 57.128906 61.378906 57.128906 60.984375 C 57.128906 60.59375 56.8125 60.277344 56.421875 60.277344 L 55.953125 60.277344 C 55.558594 60.277344 55.242188 60.59375 55.242188 60.984375 C 55.242188 61.378906 55.558594 61.695312 55.953125 61.695312 Z M 55.953125 61.695312 " fill-opacity="1" fill-rule="nonzero"/><path fill="#15dad5" d="M 66.359375 55.476562 L 67.828125 55.476562 C 68.21875 55.476562 68.539062 55.160156 68.539062 54.769531 C 68.539062 54.375 68.21875 54.058594 67.828125 54.058594 L 66.359375 54.058594 C 65.964844 54.058594 65.648438 54.375 65.648438 54.769531 C 65.648438 55.160156 65.964844 55.476562 66.359375 55.476562 Z M 66.359375 55.476562 " fill-opacity="1" fill-rule="nonzero"/><path fill="#15dad5" d="M 59.738281 61.695312 L 67.828125 61.695312 C 68.21875 61.695312 68.539062 61.378906 68.539062 60.984375 C 68.539062 60.59375 68.21875 60.277344 67.828125 60.277344 L 59.738281 60.277344 C 59.347656 60.277344 59.027344 60.59375 59.027344 60.984375 C 59.027344 61.378906 59.347656 61.695312 59.738281 61.695312 Z M 59.738281 61.695312 " fill-opacity="1" fill-rule="nonzero"/><path fill="#15dad5" d="M 62.171875 66.65625 L 60.222656 66.65625 C 59.832031 66.65625 59.511719 66.976562 59.511719 67.367188 C 59.511719 67.757812 59.832031 68.078125 60.222656 68.078125 L 62.171875 68.078125 C 62.566406 68.078125 62.882812 67.757812 62.882812 67.367188 C 62.882812 66.976562 62.566406 66.65625 62.171875 66.65625 Z M 62.171875 66.65625 " fill-opacity="1" fill-rule="nonzero"/><path fill="#15dad5" d="M 56.050781 54.632812 C 56.050781 55.097656 55.671875 55.476562 55.210938 55.476562 C 54.746094 55.476562 54.367188 55.097656 54.367188 54.632812 C 54.367188 54.171875 54.746094 53.800781 55.210938 53.800781 C 55.671875 53.800781 56.050781 54.171875 56.050781 54.632812 Z M 56.050781 54.632812 " fill-opacity="1" fill-rule="nonzero"/><g clip-path="url(#ed1d24b1c1)"><path fill="#15dad5" d="M 36.746094 73.1875 C 36.496094 73.1875 36.332031 73.105469 36.164062 72.941406 L 32.847656 69.621094 C 32.515625 69.289062 32.515625 68.792969 32.847656 68.460938 L 36.164062 65.144531 C 36.496094 64.8125 36.996094 64.8125 37.324219 65.144531 C 37.65625 65.476562 37.65625 65.972656 37.324219 66.304688 L 34.589844 69.042969 L 37.324219 71.777344 C 37.65625 72.109375 37.65625 72.609375 37.324219 72.941406 C 37.160156 73.105469 36.996094 73.1875 36.746094 73.1875 Z M 36.746094 73.1875 " fill-opacity="1" fill-rule="nonzero"/></g><g clip-path="url(#311b1f76dc)"><path fill="#15dad5" d="M 45.039062 73.1875 C 44.792969 73.1875 44.625 73.105469 44.460938 72.941406 C 44.128906 72.609375 44.128906 72.109375 44.460938 71.777344 L 47.195312 69.042969 L 44.460938 66.304688 C 44.128906 65.972656 44.128906 65.476562 44.460938 65.144531 C 44.792969 64.8125 45.289062 64.8125 45.621094 65.144531 L 48.9375 68.460938 C 49.269531 68.792969 49.269531 69.289062 48.9375 69.621094 L 45.621094 72.941406 C 45.457031 73.105469 45.289062 73.1875 45.039062 73.1875 Z M 45.039062 73.1875 " fill-opacity="1" fill-rule="nonzero"/></g><g clip-path="url(#ce0008f6c9)"><path fill="#15dad5" d="M 39.234375 74.847656 C 39.152344 74.847656 39.066406 74.847656 38.984375 74.765625 C 38.570312 74.597656 38.320312 74.183594 38.488281 73.6875 L 41.804688 63.734375 C 41.972656 63.316406 42.386719 63.070312 42.882812 63.234375 C 43.296875 63.402344 43.546875 63.816406 43.382812 64.3125 L 40.0625 74.265625 C 39.898438 74.597656 39.566406 74.847656 39.234375 74.847656 Z M 39.234375 74.847656 " fill-opacity="1" fill-rule="nonzero"/></g></svg>